<svg xmlns="http://www.w3.org/2000/svg" width="188.442" height="191.823" viewBox="0 0 188.442 191.823">
  <g id="Group_17" data-name="Group 17" transform="translate(249.103 -94.181)">
    <g id="Group_13" data-name="Group 13" transform="translate(-210.787 100.962)">
      <g id="Group_6" data-name="Group 6" transform="translate(62.312)">
        <path id="Path_16" data-name="Path 16" d="M-142.589,154.993a1.444,1.444,0,0,1-.783-.231l-34.459-22.29c-.052-.033-.127-.066-.2-.1l-.239-.123a1.436,1.436,0,0,1-.72-.918,14.745,14.745,0,0,1,.316-7.615c4.361-15.587,4.653-19.2,3.351-22.773a1.447,1.447,0,0,1,.423-1.593,1.441,1.441,0,0,1,1.642-.157c.486.274,11.428,6.514,16.3,16.8,12.436-8.923,15.239-12.071,16.669-16.137v0a1.438,1.438,0,0,1,1.839-.883,1.44,1.44,0,0,1,.959,1.48,11.881,11.881,0,0,0,.47,1.18c.149.339.267.625.314.779a61.879,61.879,0,0,1,1.668,6.827,48.713,48.713,0,0,1,.54,16.041c12.505,1.042,23.266,9.282,23.738,9.647a1.443,1.443,0,0,1,.492,1.574,1.441,1.441,0,0,1-1.3,1.007c-4.425.222-8.14,2.15-22.756,13.766a16.529,16.529,0,0,1-8.079,3.715A1.617,1.617,0,0,1-142.589,154.993Zm-33.736-24.982.042.026,34.016,22a14.161,14.161,0,0,0,6.149-3.033c11.13-8.848,16.378-12.458,20.719-13.763-4.155-2.605-12.279-6.925-20.834-7.183a1.446,1.446,0,0,1-1.085-.542,1.444,1.444,0,0,1-.287-1.179,44.321,44.321,0,0,0-.264-16.584c-.352-1.894-.792-3.761-1.311-5.569-2.409,3.835-7.03,7.7-17.552,15.187a1.448,1.448,0,0,1-1.249.206,1.45,1.45,0,0,1-.932-.857c-2.782-7.13-9.173-12.492-12.906-15.153.307,3.918-.851,9.393-4.077,20.921A12.5,12.5,0,0,0-176.325,130.011Z" transform="translate(179.353 -98.881)" fill="#fff"/>
      </g>
      <g id="Group_7" data-name="Group 7" transform="translate(0 29.54)">
        <path id="Path_17" data-name="Path 17" d="M-219.695,260.245a2.552,2.552,0,0,1-1.5-.421c-1.541-.909-1.547-4.015-1.091-5.481,1.36-4.38,40.062-113.908,43.7-123.026a19.514,19.514,0,0,1,11.517-11.275,11.584,11.584,0,0,1,9.906.931l.017.012,36.424,23.561a11.594,11.594,0,0,1,4.928,8.665,19.514,19.514,0,0,1-5.562,15.127c-6.823,7.05-90.855,87.259-94.295,90.3A7,7,0,0,1-219.695,260.245Zm.253-2.685Zm56.506-135.315a10.432,10.432,0,0,0-3.236.54,16.561,16.561,0,0,0-9.732,9.6c-3.628,9.1-42.264,118.441-43.621,122.814a4.43,4.43,0,0,0,0,2.157,4.42,4.42,0,0,0,1.968-.886c3.434-3.033,87.321-83.1,94.132-90.138a16.562,16.562,0,0,0,4.765-12.814,8.758,8.758,0,0,0-3.643-6.561l-36.4-23.543A7.913,7.913,0,0,0-162.936,122.245Z" transform="translate(222.544 -119.357)" fill="#fff"/>
      </g>
      <g id="Group_8" data-name="Group 8" transform="translate(53.592 47.894)">
        <path id="Path_18" data-name="Path 18" d="M-185.4,132.46a10.555,10.555,0,0,1,4.944-.17,13.513,13.513,0,0,1,4.66,1.835,11.373,11.373,0,0,1,5.468,8.085c-1.291-1.1-2.3-2.194-3.488-3.1a28.679,28.679,0,0,0-3.51-2.542A64.669,64.669,0,0,0-185.4,132.46Z" transform="translate(185.397 -132.079)" fill="#fff"/>
      </g>
      <g id="Group_9" data-name="Group 9" transform="translate(67.613 75.269)">
        <path id="Path_19" data-name="Path 19" d="M-175.679,151.434a10.556,10.556,0,0,1,4.944-.169,13.485,13.485,0,0,1,4.66,1.835,11.373,11.373,0,0,1,5.468,8.083c-1.291-1.1-2.3-2.193-3.488-3.1a28.662,28.662,0,0,0-3.51-2.541A64.68,64.68,0,0,0-175.679,151.434Z" transform="translate(175.679 -151.054)" fill="#fff"/>
      </g>
      <g id="Group_10" data-name="Group 10" transform="translate(42.439 80.628)">
        <path id="Path_20" data-name="Path 20" d="M-193.128,155.149a10.556,10.556,0,0,1,4.944-.17,13.525,13.525,0,0,1,4.66,1.835,11.377,11.377,0,0,1,5.468,8.085c-1.291-1.1-2.3-2.194-3.488-3.1a28.532,28.532,0,0,0-3.512-2.542A64.736,64.736,0,0,0-193.128,155.149Z" transform="translate(193.128 -154.768)" fill="#fff"/>
      </g>
      <g id="Group_11" data-name="Group 11" transform="translate(32.629 109.661)">
        <path id="Path_21" data-name="Path 21" d="M-199.928,175.273a10.561,10.561,0,0,1,4.946-.17,13.479,13.479,0,0,1,4.659,1.835,11.374,11.374,0,0,1,5.469,8.085c-1.293-1.1-2.3-2.194-3.488-3.1a28.644,28.644,0,0,0-3.512-2.542A64.666,64.666,0,0,0-199.928,175.273Z" transform="translate(199.928 -174.892)" fill="#fff"/>
      </g>
      <g id="Group_12" data-name="Group 12" transform="translate(18.569 129.428)">
        <path id="Path_22" data-name="Path 22" d="M-209.673,189.043a8.131,8.131,0,0,1,4.136-.329,10.588,10.588,0,0,1,3.914,1.487,8.884,8.884,0,0,1,4.373,6.877c-1.16-.855-2.03-1.714-3.024-2.419a29.343,29.343,0,0,0-2.881-2.014C-205.126,191.378-207.222,190.374-209.673,189.043Z" transform="translate(209.673 -188.594)" fill="#fff"/>
      </g>
    </g>
    <g id="Group_14" data-name="Group 14" transform="translate(-249.103 94.181)">
      <path id="Path_23" data-name="Path 23" d="M-242.719,199.1l-.931-1.616a.617.617,0,0,1,.1-.768l12.637-15.337a.375.375,0,0,1,.31-.13.363.363,0,0,1,.28.208l.806,1.4a.562.562,0,0,1-.1.668l-3.155,3.839,4.318,7.506,4.856-.869a.546.546,0,0,1,.618.216l.811,1.411a.359.359,0,0,1,.039.343.382.382,0,0,1-.27.2L-242,199.394A.616.616,0,0,1-242.719,199.1Zm12-3.825-3.543-6.159-6.857,7.962.022.052Z" transform="translate(251.477 -55.637)" fill="#fff"/>
      <path id="Path_24" data-name="Path 24" d="M-247.731,185.033l17.413-6.775a.381.381,0,0,1,.567.228l.5,1.3a.382.382,0,0,1-.264.551l-17.413,6.775a.369.369,0,0,1-.541-.237l-.5-1.3A.367.367,0,0,1-247.731,185.033Z" transform="translate(249.586 -56.981)" fill="#fff"/>
      <path id="Path_25" data-name="Path 25" d="M-246.953,175.337l-.277-1.418a.555.555,0,0,1,.31-.579l8.161-4.426,2.614-1.42-.01-.055-2.914-.11-9.183-.84c-.291-.038-.457-.166-.5-.385l-.287-1.476q-.091-.463.4-.418l14.072,1.457a.531.531,0,0,1,.512.439l.325,1.668a.53.53,0,0,1-.309.6l-7.571,4.151-2.784,1.526.016.082,3.139.24,8.58,1.079a.482.482,0,0,1,.512.44l.325,1.668a.529.529,0,0,1-.31.6l-12.484,6.688q-.45.173-.531-.25l-.27-1.382c-.042-.209.078-.385.355-.529l8.186-4.291,2.632-1.177-.01-.055-2.94-.237-9.251-1.169C-246.741,175.7-246.91,175.561-246.953,175.337Z" transform="translate(249.124 -63.18)" fill="#fff"/>
      <path id="Path_26" data-name="Path 26" d="M-243.69,153.105l9.075.273a.394.394,0,0,1,.431.459l-.038,1.252a.369.369,0,0,1-.43.405l-1.977-.059q2.6,1.556,2.483,5.452a5.344,5.344,0,0,1-1.193,3.53,3.671,3.671,0,0,1-2.988,1.192,3.9,3.9,0,0,1-2-.563,3.875,3.875,0,0,1-1.324-1.391,7.914,7.914,0,0,1-.782-2.225,18.048,18.048,0,0,1-.377-2.783q-.082-1.424-.081-3.346l-.779-.023a3.277,3.277,0,0,0-2.545.786,4.189,4.189,0,0,0-.879,2.844,11.156,11.156,0,0,0,.812,4.482c.085.263-.014.436-.3.519l-1.179.327a.37.37,0,0,1-.466-.265,12.311,12.311,0,0,1-.871-5.29,6.155,6.155,0,0,1,1.438-4.331A5.2,5.2,0,0,1-243.69,153.105Zm3.8,2.288-1.254-.037q.017,1.337.048,2.145t.126,1.871a8.543,8.543,0,0,0,.283,1.679,8.51,8.51,0,0,0,.479,1.213,2.007,2.007,0,0,0,.755.873,2.247,2.247,0,0,0,1.105.3,2.02,2.02,0,0,0,1.666-.743,3.541,3.541,0,0,0,.708-2.251,5.27,5.27,0,0,0-1.046-3.667A3.733,3.733,0,0,0-239.886,155.393Z" transform="translate(249.103 -68.096)" fill="#fff"/>
      <path id="Path_27" data-name="Path 27" d="M-245.443,141.593l11.853,7.05a7.267,7.267,0,0,1,2.761,2.3,4.255,4.255,0,0,1,.3,3.1,5.658,5.658,0,0,1-.71,1.929q-.216.355-.478.244l-1.05-.558a.417.417,0,0,1-.2-.525,8.154,8.154,0,0,0,.478-1.352,2.265,2.265,0,0,0-.114-1.518,1.357,1.357,0,0,0-.985-.73,2.377,2.377,0,0,0-.941.007l-13.437,2.29c-.335.064-.47-.066-.4-.388l.29-1.41c.043-.212.219-.333.524-.364l7.739-1.14,4.514-.665,0-.1-3.944-2.19-6.719-3.732a.5.5,0,0,1-.313-.551l.3-1.46Q-245.884,141.359-245.443,141.593Z" transform="translate(249.417 -73.226)" fill="#fff"/>
      <path id="Path_28" data-name="Path 28" d="M-232.529,136.05q3.748,1.43,1.8,6.53a12.736,12.736,0,0,1-2.4,4.093c-.172.192-.339.238-.5.137l-.964-.755a.324.324,0,0,1-.055-.558,10.806,10.806,0,0,0,2.04-3.393,5.766,5.766,0,0,0,.514-2.636,1.7,1.7,0,0,0-1.225-1.362,1.824,1.824,0,0,0-1.79.241,13.39,13.39,0,0,0-2.2,2.171q-.11.136-.459.541c-.232.268-.389.447-.473.534l-.452.483a3.866,3.866,0,0,1-.492.469l-.49.349a2.047,2.047,0,0,1-.547.3l-.571.169a2.031,2.031,0,0,1-.659.091,4.934,4.934,0,0,1-.7-.087,4.7,4.7,0,0,1-.8-.234q-3.564-1.359-1.767-6.068a10.51,10.51,0,0,1,2.323-3.823c.18-.209.351-.244.515-.1l.886.726q.335.216.066.531a9.531,9.531,0,0,0-1.9,3.093,4.925,4.925,0,0,0-.45,2.392,1.566,1.566,0,0,0,1.108,1.2,1.744,1.744,0,0,0,1.744-.2,13.253,13.253,0,0,0,2.121-2.2,10.354,10.354,0,0,1,2.831-2.5A3.378,3.378,0,0,1-232.529,136.05Z" transform="translate(250.778 -76.972)" fill="#fff"/>
      <path id="Path_29" data-name="Path 29" d="M-226.3,121.93l-4.928,6.746,6.634,4.846a.419.419,0,0,1,.1.662l-.854,1.169a.418.418,0,0,1-.661.1l-15.043-10.991a.406.406,0,0,1-.081-.645l6.176-8.454a.382.382,0,0,1,.6-.114l1.034.756a.408.408,0,0,1,.12.639l-5.044,6.9,5.306,3.877,4.928-6.746a.42.42,0,0,1,.662-.1l.967.705A.407.407,0,0,1-226.3,121.93Z" transform="translate(252.577 -84.896)" fill="#fff"/>
      <path id="Path_30" data-name="Path 30" d="M-231.223,115.912l.962-.968a.383.383,0,0,1,.61-.022l1.936,1.925a5.364,5.364,0,0,1-.374-2.725,4.592,4.592,0,0,1,1.42-2.87.294.294,0,0,1,.472,0l1.245,1.236a.32.32,0,0,1,0,.512c-.026.026-.1.082-.206.167a3.3,3.3,0,0,0-.3.267,3.433,3.433,0,0,0-.857,3.154,6.028,6.028,0,0,0,1.743,3.382l4.542,4.514a.393.393,0,0,1,0,.63l-.962.968a.394.394,0,0,1-.63,0l-9.6-9.541A.394.394,0,0,1-231.223,115.912Z" transform="translate(256.949 -86.676)" fill="#fff"/>
      <path id="Path_31" data-name="Path 31" d="M-213.375,117.094a7.729,7.729,0,0,0,2.395-2.894q.18-.411.641-.164l.951.577q.251.2.053.586a9.675,9.675,0,0,1-2.981,3.5,7.216,7.216,0,0,1-5.54,1.606,7.514,7.514,0,0,1-4.869-3.23,8.074,8.074,0,0,1-1.913-5.554,6.234,6.234,0,0,1,2.728-4.5,5.936,5.936,0,0,1,4.847-1.3,7.013,7.013,0,0,1,4.231,2.908l.831,1.117a.408.408,0,0,1-.114.641l-8.242,6.136a4.74,4.74,0,0,0,3.246,1.749A5.315,5.315,0,0,0-213.375,117.094Zm-7.387-8.526q-3.352,2.493-.71,6.463l6.88-5.122-.082-.111a5.051,5.051,0,0,0-2.861-2.07A3.819,3.819,0,0,0-220.762,108.568Z" transform="translate(259.922 -89.117)" fill="#fff"/>
      <path id="Path_32" data-name="Path 32" d="M-202.775,108.689q1.809,3.577-3.059,6.044a12.738,12.738,0,0,1-4.526,1.418c-.257.026-.411-.052-.462-.235l-.2-1.206q-.091-.424.333-.45a10.75,10.75,0,0,0,3.793-1.141,5.752,5.752,0,0,0,2.152-1.6,1.7,1.7,0,0,0,.009-1.831,1.824,1.824,0,0,0-1.487-1.026,13.26,13.26,0,0,0-3.087.128c-.117.016-.351.046-.7.089s-.589.069-.708.079l-.661.052a3.821,3.821,0,0,1-.678.017l-.6-.072a1.989,1.989,0,0,1-.6-.147l-.537-.258a2.028,2.028,0,0,1-.55-.377,4.8,4.8,0,0,1-.457-.534,4.783,4.783,0,0,1-.44-.713q-1.723-3.4,2.773-5.681a10.553,10.553,0,0,1,4.291-1.268c.273-.033.424.056.45.273l.167,1.133c.068.257-.036.4-.31.437a9.511,9.511,0,0,0-3.481,1.014,4.911,4.911,0,0,0-1.94,1.467,1.566,1.566,0,0,0,.013,1.632,1.748,1.748,0,0,0,1.425,1.026,13.314,13.314,0,0,0,3.05-.2,10.351,10.351,0,0,1,3.774.056A3.377,3.377,0,0,1-202.775,108.689Z" transform="translate(263.877 -91.619)" fill="#fff"/>
      <path id="Path_33" data-name="Path 33" d="M-192.91,100.767l2.6,8.7a.382.382,0,0,1-.273.547l-1.335.4a.381.381,0,0,1-.528-.307l-2.506-8.376q-1-3.335-4.439-2.305a4.329,4.329,0,0,0-2.732,2.039,4.04,4.04,0,0,0-.267,3.19l2.323,7.763a.382.382,0,0,1-.307.528l-1.307.391a.393.393,0,0,1-.554-.3l-5.355-17.9a.381.381,0,0,1,.307-.528l1.306-.391a.382.382,0,0,1,.547.273l2,6.67a4.328,4.328,0,0,1,1.121-2.226,6.023,6.023,0,0,1,2.885-1.676,5.159,5.159,0,0,1,4.133.216A5.321,5.321,0,0,1-192.91,100.767Z" transform="translate(267.469 -94.181)" fill="#fff"/>
    </g>
    <g id="Group_40" data-name="Group 40" transform="matrix(-0.966, -0.259, 0.259, -0.966, -92.83, 301.495)">
      <path id="Path_23-2" data-name="Path 23" d="M-242.719,199.1l-.931-1.616a.617.617,0,0,1,.1-.768l12.637-15.337a.375.375,0,0,1,.31-.13.363.363,0,0,1,.28.208l.806,1.4a.562.562,0,0,1-.1.668l-3.155,3.839,4.318,7.506,4.856-.869a.546.546,0,0,1,.618.216l.811,1.411a.359.359,0,0,1,.039.343.382.382,0,0,1-.27.2L-242,199.394A.616.616,0,0,1-242.719,199.1Zm12-3.825-3.543-6.159-6.857,7.962.022.052Z" transform="translate(251.477 -55.637)" fill="#fff"/>
      <path id="Path_24-2" data-name="Path 24" d="M-247.731,185.033l17.413-6.775a.381.381,0,0,1,.567.228l.5,1.3a.382.382,0,0,1-.264.551l-17.413,6.775a.369.369,0,0,1-.541-.237l-.5-1.3A.367.367,0,0,1-247.731,185.033Z" transform="translate(249.586 -56.981)" fill="#fff"/>
      <path id="Path_25-2" data-name="Path 25" d="M-246.953,175.337l-.277-1.418a.555.555,0,0,1,.31-.579l8.161-4.426,2.614-1.42-.01-.055-2.914-.11-9.183-.84c-.291-.038-.457-.166-.5-.385l-.287-1.476q-.091-.463.4-.418l14.072,1.457a.531.531,0,0,1,.512.439l.325,1.668a.53.53,0,0,1-.309.6l-7.571,4.151-2.784,1.526.016.082,3.139.24,8.58,1.079a.482.482,0,0,1,.512.44l.325,1.668a.529.529,0,0,1-.31.6l-12.484,6.688q-.45.173-.531-.25l-.27-1.382c-.042-.209.078-.385.355-.529l8.186-4.291,2.632-1.177-.01-.055-2.94-.237-9.251-1.169C-246.741,175.7-246.91,175.561-246.953,175.337Z" transform="translate(249.124 -63.18)" fill="#fff"/>
      <path id="Path_26-2" data-name="Path 26" d="M-243.69,153.105l9.075.273a.394.394,0,0,1,.431.459l-.038,1.252a.369.369,0,0,1-.43.405l-1.977-.059q2.6,1.556,2.483,5.452a5.344,5.344,0,0,1-1.193,3.53,3.671,3.671,0,0,1-2.988,1.192,3.9,3.9,0,0,1-2-.563,3.875,3.875,0,0,1-1.324-1.391,7.914,7.914,0,0,1-.782-2.225,18.048,18.048,0,0,1-.377-2.783q-.082-1.424-.081-3.346l-.779-.023a3.277,3.277,0,0,0-2.545.786,4.189,4.189,0,0,0-.879,2.844,11.156,11.156,0,0,0,.812,4.482c.085.263-.014.436-.3.519l-1.179.327a.37.37,0,0,1-.466-.265,12.311,12.311,0,0,1-.871-5.29,6.155,6.155,0,0,1,1.438-4.331A5.2,5.2,0,0,1-243.69,153.105Zm3.8,2.288-1.254-.037q.017,1.337.048,2.145t.126,1.871a8.543,8.543,0,0,0,.283,1.679,8.51,8.51,0,0,0,.479,1.213,2.007,2.007,0,0,0,.755.873,2.247,2.247,0,0,0,1.105.3,2.02,2.02,0,0,0,1.666-.743,3.541,3.541,0,0,0,.708-2.251,5.27,5.27,0,0,0-1.046-3.667A3.733,3.733,0,0,0-239.886,155.393Z" transform="translate(249.103 -68.096)" fill="#fff"/>
      <path id="Path_27-2" data-name="Path 27" d="M-245.443,141.593l11.853,7.05a7.267,7.267,0,0,1,2.761,2.3,4.255,4.255,0,0,1,.3,3.1,5.658,5.658,0,0,1-.71,1.929q-.216.355-.478.244l-1.05-.558a.417.417,0,0,1-.2-.525,8.154,8.154,0,0,0,.478-1.352,2.265,2.265,0,0,0-.114-1.518,1.357,1.357,0,0,0-.985-.73,2.377,2.377,0,0,0-.941.007l-13.437,2.29c-.335.064-.47-.066-.4-.388l.29-1.41c.043-.212.219-.333.524-.364l7.739-1.14,4.514-.665,0-.1-3.944-2.19-6.719-3.732a.5.5,0,0,1-.313-.551l.3-1.46Q-245.884,141.359-245.443,141.593Z" transform="translate(249.417 -73.226)" fill="#fff"/>
      <path id="Path_28-2" data-name="Path 28" d="M-232.529,136.05q3.748,1.43,1.8,6.53a12.736,12.736,0,0,1-2.4,4.093c-.172.192-.339.238-.5.137l-.964-.755a.324.324,0,0,1-.055-.558,10.806,10.806,0,0,0,2.04-3.393,5.766,5.766,0,0,0,.514-2.636,1.7,1.7,0,0,0-1.225-1.362,1.824,1.824,0,0,0-1.79.241,13.39,13.39,0,0,0-2.2,2.171q-.11.136-.459.541c-.232.268-.389.447-.473.534l-.452.483a3.866,3.866,0,0,1-.492.469l-.49.349a2.047,2.047,0,0,1-.547.3l-.571.169a2.031,2.031,0,0,1-.659.091,4.934,4.934,0,0,1-.7-.087,4.7,4.7,0,0,1-.8-.234q-3.564-1.359-1.767-6.068a10.51,10.51,0,0,1,2.323-3.823c.18-.209.351-.244.515-.1l.886.726q.335.216.066.531a9.531,9.531,0,0,0-1.9,3.093,4.925,4.925,0,0,0-.45,2.392,1.566,1.566,0,0,0,1.108,1.2,1.744,1.744,0,0,0,1.744-.2,13.253,13.253,0,0,0,2.121-2.2,10.354,10.354,0,0,1,2.831-2.5A3.378,3.378,0,0,1-232.529,136.05Z" transform="translate(250.778 -76.972)" fill="#fff"/>
      <path id="Path_29-2" data-name="Path 29" d="M-226.3,121.93l-4.928,6.746,6.634,4.846a.419.419,0,0,1,.1.662l-.854,1.169a.418.418,0,0,1-.661.1l-15.043-10.991a.406.406,0,0,1-.081-.645l6.176-8.454a.382.382,0,0,1,.6-.114l1.034.756a.408.408,0,0,1,.12.639l-5.044,6.9,5.306,3.877,4.928-6.746a.42.42,0,0,1,.662-.1l.967.705A.407.407,0,0,1-226.3,121.93Z" transform="translate(252.577 -84.896)" fill="#fff"/>
      <path id="Path_30-2" data-name="Path 30" d="M-231.223,115.912l.962-.968a.383.383,0,0,1,.61-.022l1.936,1.925a5.364,5.364,0,0,1-.374-2.725,4.592,4.592,0,0,1,1.42-2.87.294.294,0,0,1,.472,0l1.245,1.236a.32.32,0,0,1,0,.512c-.026.026-.1.082-.206.167a3.3,3.3,0,0,0-.3.267,3.433,3.433,0,0,0-.857,3.154,6.028,6.028,0,0,0,1.743,3.382l4.542,4.514a.393.393,0,0,1,0,.63l-.962.968a.394.394,0,0,1-.63,0l-9.6-9.541A.394.394,0,0,1-231.223,115.912Z" transform="translate(256.949 -86.676)" fill="#fff"/>
      <path id="Path_31-2" data-name="Path 31" d="M-213.375,117.094a7.729,7.729,0,0,0,2.395-2.894q.18-.411.641-.164l.951.577q.251.2.053.586a9.675,9.675,0,0,1-2.981,3.5,7.216,7.216,0,0,1-5.54,1.606,7.514,7.514,0,0,1-4.869-3.23,8.074,8.074,0,0,1-1.913-5.554,6.234,6.234,0,0,1,2.728-4.5,5.936,5.936,0,0,1,4.847-1.3,7.013,7.013,0,0,1,4.231,2.908l.831,1.117a.408.408,0,0,1-.114.641l-8.242,6.136a4.74,4.74,0,0,0,3.246,1.749A5.315,5.315,0,0,0-213.375,117.094Zm-7.387-8.526q-3.352,2.493-.71,6.463l6.88-5.122-.082-.111a5.051,5.051,0,0,0-2.861-2.07A3.819,3.819,0,0,0-220.762,108.568Z" transform="translate(259.922 -89.117)" fill="#fff"/>
      <path id="Path_32-2" data-name="Path 32" d="M-202.775,108.689q1.809,3.577-3.059,6.044a12.738,12.738,0,0,1-4.526,1.418c-.257.026-.411-.052-.462-.235l-.2-1.206q-.091-.424.333-.45a10.75,10.75,0,0,0,3.793-1.141,5.752,5.752,0,0,0,2.152-1.6,1.7,1.7,0,0,0,.009-1.831,1.824,1.824,0,0,0-1.487-1.026,13.26,13.26,0,0,0-3.087.128c-.117.016-.351.046-.7.089s-.589.069-.708.079l-.661.052a3.821,3.821,0,0,1-.678.017l-.6-.072a1.989,1.989,0,0,1-.6-.147l-.537-.258a2.028,2.028,0,0,1-.55-.377,4.8,4.8,0,0,1-.457-.534,4.783,4.783,0,0,1-.44-.713q-1.723-3.4,2.773-5.681a10.553,10.553,0,0,1,4.291-1.268c.273-.033.424.056.45.273l.167,1.133c.068.257-.036.4-.31.437a9.511,9.511,0,0,0-3.481,1.014,4.911,4.911,0,0,0-1.94,1.467,1.566,1.566,0,0,0,.013,1.632,1.748,1.748,0,0,0,1.425,1.026,13.314,13.314,0,0,0,3.05-.2,10.351,10.351,0,0,1,3.774.056A3.377,3.377,0,0,1-202.775,108.689Z" transform="translate(263.877 -91.619)" fill="#fff"/>
      <path id="Path_33-2" data-name="Path 33" d="M-192.91,100.767l2.6,8.7a.382.382,0,0,1-.273.547l-1.335.4a.381.381,0,0,1-.528-.307l-2.506-8.376q-1-3.335-4.439-2.305a4.329,4.329,0,0,0-2.732,2.039,4.04,4.04,0,0,0-.267,3.19l2.323,7.763a.382.382,0,0,1-.307.528l-1.307.391a.393.393,0,0,1-.554-.3l-5.355-17.9a.381.381,0,0,1,.307-.528l1.306-.391a.382.382,0,0,1,.547.273l2,6.67a4.328,4.328,0,0,1,1.121-2.226,6.023,6.023,0,0,1,2.885-1.676,5.159,5.159,0,0,1,4.133.216A5.321,5.321,0,0,1-192.91,100.767Z" transform="translate(267.469 -94.181)" fill="#fff"/>
    </g>
  </g>
</svg>
