<svg xmlns="http://www.w3.org/2000/svg" width="146" height="146" viewBox="0 0 146 146">
  <g id="Group_76" data-name="Group 76" transform="translate(-887 -4435)">
    <circle id="Ellipse_40" data-name="Ellipse 40" cx="73" cy="73" r="73" transform="translate(887 4435)" fill="#4eaa34"/>
    <g id="noun-cycle-2901914" transform="translate(805.708 4424.502)">
      <path id="Path_140" data-name="Path 140" d="M113.972,60.616A45.086,45.086,0,0,1,149.8,38.667l-4.039-4.039a1.859,1.859,0,0,1,0-2.628l3.453-3.453a1.858,1.858,0,0,1,2.628,0l14.734,14.734a1.858,1.858,0,0,1,0,2.628L151.84,60.644a1.859,1.859,0,0,1-2.628,0l-3.453-3.453h0a1.859,1.859,0,0,1,0-2.628l6.145-6.146h0A35.13,35.13,0,0,0,122.443,65.6Zm90.615,15.147a1.859,1.859,0,0,0-2.628,0L197.921,79.8a45.068,45.068,0,0,0-21.949-35.824l-4.984,8.472a35.141,35.141,0,0,1,17.181,29.457l-6.143-6.143a1.859,1.859,0,0,0-2.628,0l-3.454,3.453a1.859,1.859,0,0,0,0,2.628l14.735,14.734a1.858,1.858,0,0,0,2.628,0L208.04,81.845a1.858,1.858,0,0,0,0-2.628ZM98.543,84.747a1.858,1.858,0,0,0,0,2.628L102,90.828a1.859,1.859,0,0,0,2.628,0l4.039-4.038a45.068,45.068,0,0,0,21.949,35.824l4.984-8.472a35.141,35.141,0,0,1-17.181-29.457l6.143,6.143a1.859,1.859,0,0,0,2.628,0l3.453-3.453h0a1.859,1.859,0,0,0,0-2.628L115.905,70.013a1.858,1.858,0,0,0-2.628,0Zm94.066,21.229-8.471-4.985h0a35.161,35.161,0,0,1-29.457,17.181l6.143-6.144h0a1.859,1.859,0,0,0,0-2.628l-3.453-3.454a1.859,1.859,0,0,0-2.628,0l-14.734,14.735a1.858,1.858,0,0,0,0,2.628l14.734,14.734a1.858,1.858,0,0,0,2.628,0l3.453-3.453a1.859,1.859,0,0,0,0-2.628l-4.031-4.032a45.075,45.075,0,0,0,35.817-21.956Z" transform="translate(0)" fill="#fff"/>
    </g>
  </g>
</svg>
