<svg xmlns="http://www.w3.org/2000/svg" width="109.558" height="109.574" viewBox="0 0 109.558 109.574">
  <g id="noun-magnifier-1014699" transform="translate(-134.529 -63.483)">
    <path id="Path_116" data-name="Path 116" d="M206.152,63.5a37.9,37.9,0,0,0-28.8,62.592l-4.978,4.978h0a10.869,10.869,0,0,0-12.972,1.784l-21.7,21.679a10.85,10.85,0,1,0,15.344,15.344l21.7-21.678a10.865,10.865,0,0,0,1.5-13.471l4.871-4.871A37.916,37.916,0,1,0,206.1,63.484Zm-35.185,80.916L149.287,166.1a5.655,5.655,0,0,1-7.779,0,5.53,5.53,0,0,1,0-7.779l21.679-21.679a5.5,5.5,0,0,1,7.779,7.78Zm35.185-10.384h0a32.617,32.617,0,1,1,23.039-9.547,32.583,32.583,0,0,1-23.039,9.547Z" transform="translate(0 0)" fill="#fff"/>
  </g>
</svg>
