<svg xmlns="http://www.w3.org/2000/svg" width="116.955" height="91.574" viewBox="0 0 116.955 91.574">
  <g id="noun-controls-1071768" transform="translate(-133.396 -111)">
    <path id="Path_123" data-name="Path 123" d="M237.407,119.464H189.933A19.17,19.17,0,0,0,174.705,112a19.39,19.39,0,0,0-15.228,7.464H146.34a11.943,11.943,0,0,0,0,23.887h13.138a19.265,19.265,0,0,0,30.456,0h47.474a11.943,11.943,0,0,0,0-23.887Zm-81.214,17.914H146.34a5.971,5.971,0,1,1,0-11.942h9.853a20.353,20.353,0,0,0,0,11.942Zm18.512,7.464a13.436,13.436,0,1,1,13.436-13.436A13.379,13.379,0,0,1,174.706,144.843Zm62.7-7.464h-44.19a20.353,20.353,0,0,0,0-11.942h44.19a5.971,5.971,0,1,1,0,11.942Z" fill="#fff" stroke="#075221" stroke-width="2"/>
    <path id="Path_124" data-name="Path 124" d="M237.409,309.864H221.285a19.616,19.616,0,0,0-15.228-7.464,19.169,19.169,0,0,0-15.228,7.464H146.342a11.943,11.943,0,0,0,0,23.887H190.83a19.265,19.265,0,0,0,30.456,0h16.123a11.943,11.943,0,1,0,0-23.887ZM187.546,327.78h-41.2a5.971,5.971,0,1,1,0-11.942h41.2a20.342,20.342,0,0,0,0,11.942Zm18.511,7.464a13.436,13.436,0,1,1,13.436-13.436A13.379,13.379,0,0,1,206.057,335.245Zm31.351-7.464H224.569a20.353,20.353,0,0,0,0-11.942h12.839a5.971,5.971,0,1,1,0,11.942Z" transform="translate(-0.002 -139.642)" fill="#fff" stroke="#075221" stroke-width="2"/>
  </g>
</svg>
