<svg xmlns="http://www.w3.org/2000/svg" width="85.254" height="105.717" viewBox="0 0 85.254 105.717">
  <g id="noun-harvest-3428119" transform="translate(-131.257 -8.75)">
    <path id="Path_117" data-name="Path 117" d="M211.823,21.671V19.427a4.99,4.99,0,0,0-3.3-4.69V12.16h4.656a1.705,1.705,0,0,0,0-3.41H200.091a1.705,1.705,0,1,0,0,3.41h5.019v2.576a4.993,4.993,0,0,0-3.3,4.69v2.2H191.068l-3.2-6.816a1.706,1.706,0,0,0-1.543-.98H161.446a1.7,1.7,0,0,0-1.543.98l-3.2,6.816h-10.74v-2.2a4.993,4.993,0,0,0-3.3-4.69V12.16h5.019a1.705,1.705,0,0,0,0-3.41H134.592a1.705,1.705,0,1,0,0,3.41h4.656v2.576a4.993,4.993,0,0,0-3.3,4.69V21.67c-3.027.36-4.722,2.989-4.688,5.86a5.4,5.4,0,0,0,5.32,5.463H156.7l2.749,5.854a26.516,26.516,0,0,0-7.992,20.894,1.725,1.725,0,0,0,1.813,1.589,1.706,1.706,0,0,0,1.589-1.814,23.142,23.142,0,0,1,7.511-18.726h9.807V45.1a1.705,1.705,0,0,0,3.41,0V40.789h10.285a23.138,23.138,0,0,1,7.51,18.726,1.7,1.7,0,0,0,1.589,1.814,1.722,1.722,0,0,0,1.813-1.589,26.51,26.51,0,0,0-8.325-21.2l2.6-5.548h20.124a5.4,5.4,0,0,0,5.32-5.463c.037-2.87-1.664-5.5-4.689-5.858Zm-6.606-2.245a1.581,1.581,0,0,1,1.58-1.58h.037a1.581,1.581,0,0,1,1.579,1.58v2.2h-3.2Zm-42.688-2.184H185.24l3.928,8.363H158.6Zm-23.172,2.184a1.581,1.581,0,0,1,1.579-1.58h.037a1.581,1.581,0,0,1,1.579,1.58v2.2h-3.2ZM155.1,29.583H136.94a2.272,2.272,0,0,1,0-4.544H155.1a5.105,5.105,0,0,0,0,4.544Zm30.14,7.8H162.529L158.6,29.016h30.567Zm25.59-7.8H192.669a5.1,5.1,0,0,0,0-4.543h18.161a2.271,2.271,0,1,1,0,4.543Z" fill="#fff"/>
    <path id="Path_118" data-name="Path 118" d="M264.51,247.233h-4.626a26.766,26.766,0,0,0,.114-8.69,9.138,9.138,0,0,0-5.749-6.965l1.342-1.369a1.705,1.705,0,0,0-2.435-2.388l-.681.695.006-2.82a1.707,1.707,0,0,0-1.7-1.71h0a1.705,1.705,0,0,0-1.705,1.7l-.006,2.848-.684-.7a1.7,1.7,0,0,0-2.434,2.388l1.334,1.362a9.233,9.233,0,0,0-5.784,6.983,26.757,26.757,0,0,0,.065,8.665h-4.207a26.764,26.764,0,0,0,.113-8.69,9.137,9.137,0,0,0-5.749-6.965l1.342-1.369a1.705,1.705,0,0,0-2.435-2.388l-.681.695.006-2.82a1.706,1.706,0,0,0-1.7-1.71h0a1.7,1.7,0,0,0-1.705,1.7l-.006,2.848-.684-.7a1.7,1.7,0,0,0-2.434,2.388l1.334,1.362a9.231,9.231,0,0,0-5.784,6.983,26.714,26.714,0,0,0,.071,8.665h-4.627a1.706,1.706,0,0,0-1.705,1.705v9.689c0,1.395,1.248,1.705,2.367,1.705l0,25.721a1.706,1.706,0,0,0,1.705,1.705h45.367a1.706,1.706,0,0,0,1.705-1.705V260.331c1.121,0,2.367-.308,2.367-1.705v-9.688a1.7,1.7,0,0,0-1.7-1.705Zm-13.747-12.9h.014a5.856,5.856,0,0,1,5.86,4.784,24.345,24.345,0,0,1-.171,8.114H245.009c-.069-.416-.128-.833-.183-1.25l3.351-.008a1.705,1.705,0,0,0,0-3.41h0l-3.586.008q0-1.009.09-2.019l3.514-.008a1.705,1.705,0,0,0,0-3.41h0l-2.544.005a6.026,6.026,0,0,1,5.124-2.807Zm-22.531,0h.014a5.856,5.856,0,0,1,5.86,4.784,24.365,24.365,0,0,1-.168,8.114h-11.46c-.068-.416-.128-.833-.183-1.25l3.351-.008a1.705,1.705,0,0,0,0-3.41h0l-3.586.008q0-1.009.09-2.019l3.514-.008a1.705,1.705,0,0,0,0-3.41h0l-2.544.005a6.03,6.03,0,0,1,5.125-2.807Zm32.206,50.015H218.482V260.33h41.957Zm2.367-27.43H216.114v-6.278h21.64v2.536a1.705,1.705,0,0,0,3.41,0v-2.536H262.8Z" transform="translate(-65.577 -173.294)" fill="#fff"/>
  </g>
</svg>
