<svg xmlns="http://www.w3.org/2000/svg" width="62.015" height="109.574" viewBox="0 0 62.015 109.574">
  <g id="noun-seed-1025551" transform="translate(-191.505 0.069)">
    <path id="Path_108" data-name="Path 108" d="M198.14,269.92c-4.872,15.443-3.758,29.684,3.117,39.249a25.422,25.422,0,0,0,19.4,10.775,100.756,100.756,0,0,0-6.871-31.4c-2.671-6.619-8.147-17.484-15.643-18.629m24.373,53.736A29.471,29.471,0,0,1,198.291,311.3c-7.767-10.807-8.923-26.8-3.175-43.886a1.826,1.826,0,0,1,1.731-1.243c17.053,0,27.491,36.037,27.491,55.661a1.827,1.827,0,0,1-1.826,1.826" transform="translate(0 -214.152)" fill="#fff" fill-rule="evenodd"/>
    <path id="Path_109" data-name="Path 109" d="M366.866,269.923c-7.5,1.145-12.972,12.01-15.643,18.629a100.742,100.742,0,0,0-6.871,31.4,25.422,25.422,0,0,0,19.4-10.775c6.874-9.564,7.988-23.807,3.117-39.249M342.494,323.66a1.827,1.827,0,0,1-1.826-1.826c0-19.625,10.439-55.661,27.491-55.661a1.826,1.826,0,0,1,1.731,1.243c5.748,17.083,4.592,33.079-3.175,43.886a29.47,29.47,0,0,1-24.222,12.357" transform="translate(-119.981 -214.155)" fill="#fff" fill-rule="evenodd"/>
    <path id="Path_110" data-name="Path 110" d="M295.564,211.712a1.825,1.825,0,0,1-1.79-1.475c-2.332-11.909-7.673-19.91-13.289-19.91s-10.958,8-13.288,19.91a1.826,1.826,0,0,1-3.584-.7c2.719-13.888,9.342-22.86,16.872-22.86s14.155,8.973,16.872,22.86a1.827,1.827,0,0,1-1.793,2.176" transform="translate(-57.973 -150.21)" fill="#fff" fill-rule="evenodd"/>
    <path id="Path_111" data-name="Path 111" d="M215.98,67.517a18.918,18.918,0,0,0,6.247,8.008c3.972,2.911,8.7,3.817,14.076,2.715A20.884,20.884,0,0,0,215.98,67.517m16.054,14.827A19.963,19.963,0,0,1,218.72,77.4c-4.565-3.952-7.033-9.556-6.728-11.677a1.829,1.829,0,0,1,1.234-1.473c2.792-.922,19.7-2.193,27.4,14.419a1.726,1.726,0,0,1,.095.252,1.84,1.84,0,0,1-1.23,2.283,26.3,26.3,0,0,1-7.456,1.141" transform="translate(-16.459 -51.355)" fill="#fff" fill-rule="evenodd"/>
    <path id="Path_112" data-name="Path 112" d="M297.831,116.038a1.82,1.82,0,0,1-.809-.19l-10.857-5.376a1.826,1.826,0,1,1,1.622-3.272l10.857,5.376a1.826,1.826,0,0,1-.812,3.462" transform="translate(-75.324 -86.132)" fill="#fff" fill-rule="evenodd"/>
    <path id="Path_113" data-name="Path 113" d="M345.152,14.395c5.379,1.1,10.1.2,14.076-2.713a18.712,18.712,0,0,0,6.231-8.014,20.885,20.885,0,0,0-20.307,10.727m4.269,4.105a26.3,26.3,0,0,1-7.453-1.143,1.824,1.824,0,0,1-1.236-2.266l.005-.015a1.714,1.714,0,0,1,.1-.254c7.7-16.613,24.6-15.342,27.4-14.418a1.826,1.826,0,0,1,1.232,1.474c.3,2.122-2.164,7.723-6.728,11.675A19.959,19.959,0,0,1,349.421,18.5" transform="translate(-119.971 0)" fill="#fff" fill-rule="evenodd"/>
    <path id="Path_114" data-name="Path 114" d="M342.517,52.182a1.826,1.826,0,0,1-.812-3.462l10.857-5.376a1.826,1.826,0,0,1,1.622,3.272l-10.857,5.376a1.82,1.82,0,0,1-.809.19" transform="translate(-119.998 -34.765)" fill="#fff" fill-rule="evenodd"/>
    <path id="Path_115" data-name="Path 115" d="M342.494,40.179a1.827,1.827,0,0,1-1.826-1.826V1.835a1.826,1.826,0,1,1,3.651,0V38.353a1.827,1.827,0,0,1-1.826,1.826" transform="translate(-119.981 -0.062)" fill="#fff" fill-rule="evenodd"/>
  </g>
</svg>
