<svg xmlns="http://www.w3.org/2000/svg" width="104.29" height="111.596" viewBox="0 0 104.29 111.596">
  <g id="noun-customer-service-2850835" transform="translate(-185.669 -115.668)">
    <path id="Path_122" data-name="Path 122" d="M237.814,116.669a51.2,51.2,0,0,0-51.145,51.145v25.573a10.76,10.76,0,0,0,1.88,6.054c1.234,3.375,9.275,20.947,42.865,22.963h0a7.295,7.295,0,1,0,.217-7.287c-16.948-1.023-26.111-6.183-31-10.77h.648a10.973,10.973,0,0,0,10.96-10.96V178.773a10.971,10.971,0,0,0-10.96-10.96h-7.306a43.839,43.839,0,0,1,87.678,0h-7.306a10.971,10.971,0,0,0-10.96,10.96v14.613a10.973,10.973,0,0,0,10.96,10.96H278A10.935,10.935,0,0,0,283.244,203a3.653,3.653,0,1,0-3.511-6.407,3.554,3.554,0,0,1-1.734.444h-3.652a3.655,3.655,0,0,1-3.654-3.652V178.773a3.657,3.657,0,0,1,3.654-3.654h7.306v12.543a3.653,3.653,0,1,0,7.306,0V167.813a51.2,51.2,0,0,0-51.145-51.145Zm-36.533,58.45a3.657,3.657,0,0,1,3.654,3.654v14.613a3.655,3.655,0,0,1-3.654,3.652h-3.652a3.646,3.646,0,0,1-2.747-1.262c-.05-.077-.1-.149-.157-.223a3.512,3.512,0,0,1-.75-2.167V175.119Z" transform="translate(0 0)" fill="#fff" stroke="#075221" stroke-width="2"/>
  </g>
</svg>
