<svg xmlns="http://www.w3.org/2000/svg" width="141.192" height="151.784" viewBox="0 0 141.192 151.784">
  <g id="noun-onion-4623383" transform="translate(94.454) rotate(40)">
    <path id="Path_66" data-name="Path 66" d="M11.662,103.656c-6.7,6.2-14.328,13.218-10.747,26.99,1.648,6.519,7.361,11.445,16.513,14.328a43.006,43.006,0,0,0,5.964,1.4,44.507,44.507,0,0,0,6.878.573h.215a44.95,44.95,0,0,0,7.163-.573,42.681,42.681,0,0,0,5.983-1.4c6.788-2.078,14.221-5.086,16.513-14.328,3.457-13.791-4.1-20.811-10.747-27.009-1.451-1.343-2.83-2.615-4.065-3.94-6.054-6.394-.232-15.4,0-15.779h0a1.791,1.791,0,0,0-2.651-2.365l-.251.215c7.361-52.78,2.382-70.69,2.2-71.516a1.808,1.808,0,0,0-3.241-.484c-.3.447-3.582,5.516-6.77,16.728C32.384,8.14,27.995,1.3,27.655.8a1.784,1.784,0,0,0-3.134.3c-.215.5-2.991,7.307-4.46,25.772a12.659,12.659,0,0,0-1.79-2.166,1.769,1.769,0,0,0-2.812.537c-.3.591-6.269,13.755,3.582,56.973l-.752-.645a1.791,1.791,0,0,0-2.651,2.364c.251.376,6.072,9.385,0,15.779-1.146,1.307-2.525,2.579-3.975,3.94ZM42.109,16.469c1.021,8.811,1.934,29.658-3.85,68.81l-1.934,1.63-4.048-14.6a1.8,1.8,0,0,0-.537-.842c1.307-30.088,7.039-47.372,10.316-55ZM26.616,6.941c1.792,4.871,4.441,14.417,5.373,30.447C30.933,42.51,30,48.438,29.267,55.3h0a97.472,97.472,0,0,0-5.945-22.37A159.3,159.3,0,0,1,26.563,6.941ZM17.949,30.135c2.92,5.069,8.257,17.91,9.958,45.511L24.772,86.911l-.967-.806c-8.149-33.278-7.092-49.595-5.857-55.969ZM21.71,89.024l2.866,2.436h0a1.795,1.795,0,0,0,2.883-.9l3.027-11.086,3.1,11.086a1.8,1.8,0,0,0,2.883.9l2.973-2.454A14.186,14.186,0,0,0,42.61,102.1c1.343,1.415,2.812,2.793,4.263,4.119,6.519,6.054,12.7,11.767,9.743,23.5-1.792,7.378-7.719,9.761-14.095,11.713h0a27.933,27.933,0,0,0,7.522-9.259,1.791,1.791,0,0,0-3.188-1.63,24.315,24.315,0,0,1-11.3,11.015c6.752-9.563,5.982-17.91,5.947-18.411h0a1.842,1.842,0,0,0-3.654.449s.823,9.224-7.593,18.841c-8.418-9.886-4.084-26.005-4.048-26.148a1.791,1.791,0,1,0-3.439-.967c-.2.716-4.245,15.618,2.883,26.865-10.567-3.313-13.7-10.639-12.949-16.477h0a1.8,1.8,0,0,0-3.582-.447,17.194,17.194,0,0,0,5.821,14.99c-5.946-2.507-9.527-5.91-10.584-10.477-2.991-11.713,3.188-17.426,9.724-23.479,1.451-1.343,2.937-2.722,4.28-4.138h0a14.15,14.15,0,0,0,3.277-13.129Z" fill="#fff"/>
  </g>
</svg>
