<svg xmlns="http://www.w3.org/2000/svg" width="93.497" height="127.489" viewBox="0 0 93.497 127.489">
  <g id="noun-qa-check-4347720" transform="translate(-144.672 -0.018)">
    <path id="Path_131" data-name="Path 131" d="M149.175,118.944l10.027-.471,6.4,7.531h0a4.3,4.3,0,0,0,3.277,1.5,4.385,4.385,0,0,0,.62-.044,4.293,4.293,0,0,0,3.326-2.478l18.59-41.13,18.593,41.134a4.287,4.287,0,0,0,3.323,2.473,4.383,4.383,0,0,0,.62.044,4.307,4.307,0,0,0,3.283-1.513l6.46-7.539,9.987.489h0a4.285,4.285,0,0,0,3.761-1.9,4.189,4.189,0,0,0,.342-4.1l-20.9-46.2c.529-.47,1.063-.927,1.574-1.441.8-.8,1.54-1.609,2.218-2.423h0a4.206,4.206,0,0,0,.614-4.367l-2.042-4.792A31.705,31.705,0,0,0,222.049,47l4.832-1.932h0a4.2,4.2,0,0,0,2.651-3.521c.1-1.041.142-2.144.142-3.283s-.047-2.242-.142-3.279a4.217,4.217,0,0,0-2.662-3.521l-4.832-1.932h0a31.729,31.729,0,0,0-2.784-6.734L221.307,18a4.2,4.2,0,0,0-.616-4.365c-.673-.812-1.419-1.626-2.214-2.42S216.87,9.68,216.054,9h0a4.2,4.2,0,0,0-4.367-.614l-4.793,2.053a31.687,31.687,0,0,0-6.74-2.794L198.219,2.81A4.2,4.2,0,0,0,194.7.158a38.45,38.45,0,0,0-6.558,0,4.2,4.2,0,0,0-3.521,2.654l-1.936,4.833a31.724,31.724,0,0,0-6.73,2.794l-4.789-2.051A4.2,4.2,0,0,0,166.794,9c-.816.68-1.63,1.428-2.42,2.218s-1.543,1.611-2.218,2.423h0a4.206,4.206,0,0,0-.614,4.367l2.053,4.792a31.713,31.713,0,0,0-2.794,6.73l-4.836,1.933h0a4.213,4.213,0,0,0-2.65,3.521c-.1,1.039-.142,2.144-.142,3.281s.047,2.242.142,3.279a4.207,4.207,0,0,0,2.654,3.521l4.832,1.932h0a31.714,31.714,0,0,0,2.794,6.731l-2.053,4.792a4.2,4.2,0,0,0,.615,4.367c.676.814,1.421,1.627,2.214,2.42.48.48.977.9,1.468,1.345l-20.785,46.3a4.194,4.194,0,0,0,.34,4.1,4.3,4.3,0,0,0,3.78,1.9Zm74.69-4.737a4.466,4.466,0,0,0-3.466,1.513l-6.519,7.514L193.755,78.7l1.063-2.354h0a4.2,4.2,0,0,0,3.4-2.626l1.932-4.834a31.506,31.506,0,0,0,6.734-2.784l4.792,2.054h0a4.317,4.317,0,0,0,1.319.314l20.877,46.241ZM167.786,52.485a27.443,27.443,0,0,1-3.143-7.577,2.125,2.125,0,0,0-1.274-1.462l-5.822-2.291c-.087-.954-.127-1.912-.127-2.894s.04-1.94.125-2.856l5.82-2.337h0a2.124,2.124,0,0,0,1.275-1.459,27.441,27.441,0,0,1,3.149-7.58,2.124,2.124,0,0,0,.132-1.935l-2.5-5.737q.924-1.107,1.964-2.138c.7-.7,1.415-1.362,2.106-1.932l5.779,2.475a2.123,2.123,0,0,0,1.936-.133,27.418,27.418,0,0,1,7.566-3.141,2.125,2.125,0,0,0,1.462-1.274l2.288-5.822a31.892,31.892,0,0,1,5.755,0l2.327,5.822a2.125,2.125,0,0,0,1.462,1.274,27.434,27.434,0,0,1,7.575,3.147,2.124,2.124,0,0,0,1.935.134l5.737-2.5c.719.6,1.434,1.256,2.135,1.961s1.345,1.4,1.933,2.108l-2.463,5.775a2.126,2.126,0,0,0,.132,1.936,27.467,27.467,0,0,1,3.143,7.569,2.126,2.126,0,0,0,1.274,1.459l5.818,2.291c.087.954.127,1.925.127,2.894s-.04,1.94-.11,2.848h-.017l-5.818,2.337a2.125,2.125,0,0,0-1.274,1.462,27.429,27.429,0,0,1-3.149,7.577,2.126,2.126,0,0,0-.133,1.936l2.5,5.737q-.924,1.107-1.964,2.14c-.684.687-1.4,1.343-2.106,1.932l-5.774-2.469a2.124,2.124,0,0,0-1.936.136,27.419,27.419,0,0,1-7.575,3.145,2.126,2.126,0,0,0-1.462,1.274l-2.286,5.82h0a32.738,32.738,0,0,1-5.756,0l-2.337-5.822a2.129,2.129,0,0,0-1.462-1.275,27.389,27.389,0,0,1-7.575-3.145,2.129,2.129,0,0,0-1.936-.136l-5.737,2.5c-.735-.616-1.45-1.275-2.125-1.961s-1.345-1.4-1.933-2.108l2.473-5.773h0a2.12,2.12,0,0,0-.132-1.933Zm1.9,15.969a4.187,4.187,0,0,0,1.473-.312l4.793-2.054h0a31.49,31.49,0,0,0,6.73,2.794l1.933,4.839h0a4.208,4.208,0,0,0,3.525,2.649c.638.055,1.3.061,1.95.085l-21.248,46.787-6.375-7.5h0a4.423,4.423,0,0,0-3.521-1.527l-10.028.484Z" transform="translate(0)" fill="#4eaa34"/>
    <path id="Path_132" data-name="Path 132" d="M270.667,112.085a23.373,23.373,0,0,0,0-46.747,2.125,2.125,0,0,0,0,4.25,19.105,19.105,0,1,1-8.345,1.912,2.125,2.125,0,1,0-1.855-3.824,23.373,23.373,0,0,0,10.2,44.41Z" transform="translate(-79.249 -50.449)" fill="#4eaa34"/>
    <path id="Path_133" data-name="Path 133" d="M303.961,134.707a2.127,2.127,0,0,0,0,3l4.25,4.25a2.125,2.125,0,0,0,1.5.622h.151a2.128,2.128,0,0,0,1.549-.85l12.749-17a2.125,2.125,0,1,0-3.4-2.55l-11.279,15.04-2.518-2.518h0a2.127,2.127,0,0,0-3,0Z" transform="translate(-122.545 -93.698)" fill="#4eaa34"/>
    <path id="Path_134" data-name="Path 134" d="M206.792,358.282a2.124,2.124,0,0,0,2.811-1.062l12.4-27.622h0a2.125,2.125,0,1,0-3.876-1.742l-12.407,27.622a2.125,2.125,0,0,0,1.066,2.8Z" transform="translate(-47.011 -252.213)" fill="#4eaa34"/>
    <path id="Path_135" data-name="Path 135" d="M424.258,327.914a2.126,2.126,0,0,0-3.878,1.743l12.407,27.623h0a2.125,2.125,0,1,0,3.876-1.742Z" transform="translate(-212.794 -252.277)" fill="#4eaa34"/>
  </g>
</svg>
