<svg xmlns="http://www.w3.org/2000/svg" width="68.979" height="56.716" viewBox="0 0 68.979 56.716">
  <path id="Path_59" data-name="Path 59" d="M164.644,72.791c-6.7.126-14.158.64-20.166,4.167C138.556,80.435,134.508,87.1,134.8,97.7a36.722,36.722,0,0,0-2.946,7.137c-.516-1.067-1.057-2.112-1.652-3.089-.017-5.765-.862-10.226-2.491-13.7a16.144,16.144,0,0,0-7.041-7.52c-5.819-3.144-12.963-3.151-20.118-3.9a2.3,2.3,0,0,0-2.132,3.593c3.66,5.284,4.655,11.109,6.922,16.214a15.23,15.23,0,0,0,5.173,6.683c2.5,1.717,5.824,2.635,10.155,2.635a19.679,19.679,0,0,0,6.012-.982,34.559,34.559,0,0,1,2.874,6.682,13.016,13.016,0,0,0-8.287,5.892,16.177,16.177,0,0,0-8.407,2.73,8.973,8.973,0,0,0-4.12,7.137,2.3,2.3,0,0,0,2.3,2.3h42.919a2.3,2.3,0,0,0,2.3-2.3,8.972,8.972,0,0,0-4.12-7.137,16.176,16.176,0,0,0-8.407-2.73,13.019,13.019,0,0,0-8.67-5.964,38.492,38.492,0,0,1,3.233-10.515,19.919,19.919,0,0,0,5.7,1.054,19.527,19.527,0,0,0,10.323-2.443,15.878,15.878,0,0,0,5.772-6.467c2.648-5.072,3.763-11.095,6.658-16.886a2.3,2.3,0,0,0-2.107-3.329ZM161.1,77.557c-2.119,5.161-3.319,9.949-5.077,13.317a11.014,11.014,0,0,1-4.072,4.646c-1.78,1.078-4.233,1.8-7.952,1.8a13.953,13.953,0,0,1-3.138-.575c.336-.442.674-.881,1.03-1.293,3.381-3.913,7.852-6.674,13.268-9.964a2.3,2.3,0,1,0-2.4-3.928c-4.7,2.855-9.031,5.483-12.694,9.125a13.866,13.866,0,0,1,6.754-9.748c3.821-2.244,8.988-3.069,14.274-3.377Zm-56.548,4.12c5.493.526,10.518,1.062,13.916,2.9a11.226,11.226,0,0,1,5.1,5.437,19.607,19.607,0,0,1,1.437,5.149,48.547,48.547,0,0,0-11.329-8.311,2.3,2.3,0,1,0-2.2,4.048c5.1,2.794,9.25,5.84,12.454,9.8a13.5,13.5,0,0,1-3.257.455c-3.711,0-5.967-.737-7.544-1.82a10.575,10.575,0,0,1-3.568-4.766c-1.487-3.349-2.568-8.028-5.006-12.885ZM132.5,115.71a8.3,8.3,0,0,1,7.855,4.767,2.3,2.3,0,0,0,2.108,1.365,12.093,12.093,0,0,1,6.993,1.964,5.666,5.666,0,0,1,1.078,1.1H114.467a5.675,5.675,0,0,1,1.078-1.1,12.093,12.093,0,0,1,6.993-1.964,2.3,2.3,0,0,0,2.108-1.365,8.3,8.3,0,0,1,7.855-4.767Z" transform="translate(-98.016 -72.79)" fill="#3ea232"/>
</svg>
