<svg xmlns="http://www.w3.org/2000/svg" xmlns:xlink="http://www.w3.org/1999/xlink" width="641" height="641" viewBox="0 0 641 641">
  <defs>
    <radialGradient id="radial-gradient" cx="0.5" cy="0.5" r="0.5" gradientUnits="objectBoundingBox">
      <stop offset="0" stop-color="#4eaa34"/>
      <stop offset="1" stop-color="#4da733" stop-opacity="0"/>
    </radialGradient>
  </defs>
  <g id="Group_27" data-name="Group 27" transform="translate(-278 -985)">
    <path id="Subtraction_1" data-name="Subtraction 1" d="M320.5,641a322.87,322.87,0,0,1-64.592-6.511,318.743,318.743,0,0,1-114.6-48.225A321.438,321.438,0,0,1,25.186,445.253,318.888,318.888,0,0,1,6.511,385.092a323.628,323.628,0,0,1,0-129.184,318.743,318.743,0,0,1,48.225-114.6A321.433,321.433,0,0,1,195.747,25.186,318.885,318.885,0,0,1,255.908,6.511a323.627,323.627,0,0,1,129.184,0,318.745,318.745,0,0,1,114.6,48.225,321.434,321.434,0,0,1,116.119,141.01,318.876,318.876,0,0,1,18.675,60.161,323.628,323.628,0,0,1,0,129.184,318.744,318.744,0,0,1-48.225,114.6A321.437,321.437,0,0,1,445.253,615.814a318.89,318.89,0,0,1-60.161,18.675A322.871,322.871,0,0,1,320.5,641Zm0-426.065a106.343,106.343,0,0,0-21.275,2.145,104.989,104.989,0,0,0-37.747,15.884,105.872,105.872,0,0,0-38.247,46.446,105.012,105.012,0,0,0-6.151,19.816,106.593,106.593,0,0,0,0,42.55,104.994,104.994,0,0,0,15.884,37.748,105.871,105.871,0,0,0,46.446,38.247,105.019,105.019,0,0,0,19.815,6.151,106.593,106.593,0,0,0,42.55,0,104.987,104.987,0,0,0,37.748-15.884,105.874,105.874,0,0,0,38.247-46.446,105.02,105.02,0,0,0,6.151-19.816,106.593,106.593,0,0,0,0-42.55,104.988,104.988,0,0,0-15.884-37.747A105.874,105.874,0,0,0,361.59,223.23a105.027,105.027,0,0,0-19.816-6.151A106.344,106.344,0,0,0,320.5,214.935Z" transform="translate(278 985)" opacity="0.2" fill="url(#radial-gradient)"/>
    <g id="Ellipse_5" data-name="Ellipse 5" transform="translate(493 1200)" fill="none" stroke="#3ea232" stroke-width="5">
      <circle cx="105.5" cy="105.5" r="105.5" stroke="none"/>
      <circle cx="105.5" cy="105.5" r="103" fill="none"/>
    </g>
    <g id="Group_24" data-name="Group 24" transform="translate(540.54 1021.404)">
      <path id="Path_51" data-name="Path 51" d="M121.488,259.45a23.488,23.488,0,1,0,23.488,23.488A23.514,23.514,0,0,0,121.488,259.45Zm0,41.142a17.653,17.653,0,1,1,17.652-17.653A17.672,17.672,0,0,1,121.488,300.592Z" transform="translate(-98 -221.922)" fill="#3ea232"/>
      <path id="Path_52" data-name="Path 52" d="M492.311,339.75A14.254,14.254,0,1,0,506.564,354,14.27,14.27,0,0,0,492.311,339.75Zm0,22.672A8.418,8.418,0,1,1,500.727,354,8.427,8.427,0,0,1,492.311,362.422Z" transform="translate(-390.644 -283.754)" fill="#3ea232"/>
      <path id="Path_53" data-name="Path 53" d="M344.128,372.98H313.57a2.918,2.918,0,0,0,0,5.836h30.558a2.918,2.918,0,1,0,0-5.836Z" transform="translate(-261.742 -309.341)" fill="#3ea232"/>
      <path id="Path_54" data-name="Path 54" d="M439.915,330.06a1.459,1.459,0,1,0,0,2.918h8.835a1.459,1.459,0,0,0,0-2.918Z" transform="translate(-360.151 -276.292)" fill="#3ea232"/>
      <path id="Path_55" data-name="Path 55" d="M153.283,102.127h2.187l-3.463,27.5a3.034,3.034,0,0,0,3.634,3.552,25.175,25.175,0,0,1,30.8,18.262,2.917,2.917,0,0,0,2.891,2.545h10.518a2.918,2.918,0,0,0,2.908-3.154l-1.088-13.467h31.951v2.96H218.086a1.459,1.459,0,0,0,0,2.918h15.533v1.945H218.086a1.459,1.459,0,0,0,0,2.918h15.546a2.917,2.917,0,0,0,5.824-.245V134.447a2.918,2.918,0,0,0-2.918-2.918H216.866V117.3l3.039-2.279a2.917,2.917,0,1,0-3.5-4.668l-4.206,3.154a2.918,2.918,0,0,0-1.168,2.334v15.689h-9.819c-.463-6.082-1.59-20.765-2.137-26.443a9.757,9.757,0,0,0-8.981-8.78c-.116-.007-.232-.014-27.784-.019h-9.026a2.919,2.919,0,0,0,0,5.839Zm4.968,24.631,3.1-24.631,10.48,0V128.1a31.2,31.2,0,0,0-13.581-1.346Zm35.013-21.109c.688,7.146,2.314,28.8,2.332,29.019,0,0,0,0,0,.006v.011l1.088,13.467H191.57a30.817,30.817,0,0,0-13.9-17.421v-28.6c6.261,0,11.417.006,12.126.008a3.877,3.877,0,0,1,3.47,3.51Z" transform="translate(-138.322 -96.286)" fill="#3ea232"/>
    </g>
    <text id="Agriculture_Machinery" data-name="Agriculture
Machinery" transform="translate(601 1145)" font-size="23" font-family="AmsiPro-Black" font-weight="800"><tspan x="-62" y="0">Agriculture</tspan><tspan x="-57" y="27">Machinery</tspan></text>
    <text id="Planting_Process" data-name="Planting
Process" transform="translate(770 1442)" font-size="23" font-family="AmsiPro-Black" font-weight="800"><tspan x="-46" y="0">Planting</tspan><tspan x="-43" y="27">Process</tspan></text>
    <text id="Harvesting_Process" data-name="Harvesting
Process" transform="translate(417 1442)" font-size="23" font-family="AmsiPro-Black" font-weight="800"><tspan x="-60" y="0">Harvesting</tspan><tspan x="-43" y="27">Process</tspan></text>
    <path id="Path_56" data-name="Path 56" d="M0,27.335H28.051V0" transform="matrix(0.966, 0.259, -0.259, 0.966, 675.745, 1234.046)" fill="none" stroke="#3ea232" stroke-width="5"/>
    <path id="Path_57" data-name="Path 57" d="M0,27.335H28.051V0" transform="translate(633.005 1409.444) rotate(135)" fill="none" stroke="#3ea232" stroke-width="5"/>
    <path id="Path_58" data-name="Path 58" d="M0,27.335H28.051V0" transform="translate(500.085 1286.935) rotate(-120)" fill="none" stroke="#3ea232" stroke-width="5"/>
    <path id="Path_59" data-name="Path 59" d="M201.461,72.792c-10.4.2-21.982.994-31.31,6.47-9.194,5.4-15.478,15.748-15.023,32.2a57.014,57.014,0,0,0-4.574,11.081c-.8-1.657-1.641-3.279-2.566-4.8-.026-8.951-1.339-15.877-3.867-21.27A25.064,25.064,0,0,0,133.19,84.8c-9.034-4.881-20.126-4.891-31.235-6.061a3.572,3.572,0,0,0-3.309,5.578c5.682,8.2,7.228,17.248,10.746,25.173a23.646,23.646,0,0,0,8.032,10.375c3.884,2.666,9.041,4.09,15.766,4.09a30.554,30.554,0,0,0,9.334-1.525,53.655,53.655,0,0,1,4.462,10.374,20.208,20.208,0,0,0-12.866,9.148,25.117,25.117,0,0,0-13.052,4.239c-3.821,2.73-6.4,6.678-6.4,11.081a3.571,3.571,0,0,0,3.57,3.57h66.635a3.571,3.571,0,0,0,3.57-3.57c0-4.4-2.575-8.351-6.4-11.081A25.114,25.114,0,0,0,169,141.956a20.213,20.213,0,0,0-13.461-9.259,59.762,59.762,0,0,1,5.02-16.325,30.925,30.925,0,0,0,8.85,1.637c6.684,0,11.917-1.3,16.027-3.793a24.651,24.651,0,0,0,8.962-10.04c4.111-7.875,5.842-17.225,10.337-26.216a3.57,3.57,0,0,0-3.272-5.169Zm-5.5,7.4c-3.29,8.012-5.153,15.446-7.883,20.675a17.1,17.1,0,0,1-6.321,7.214c-2.763,1.674-6.571,2.789-12.346,2.789a21.664,21.664,0,0,1-4.871-.892c.521-.687,1.046-1.368,1.6-2.008,5.249-6.076,12.191-10.361,20.6-15.469a3.573,3.573,0,1,0-3.718-6.1c-7.3,4.432-14.021,8.513-19.708,14.167,1.621-7.6,5.384-12.138,10.486-15.134,5.933-3.484,13.954-4.764,22.162-5.243Zm-87.795,6.4c8.528.817,16.33,1.649,21.606,4.5a17.43,17.43,0,0,1,7.921,8.441,30.441,30.441,0,0,1,2.231,7.995,75.373,75.373,0,0,0-17.589-12.9,3.579,3.579,0,1,0-3.421,6.285c7.925,4.339,14.361,9.067,19.336,15.208a20.96,20.96,0,0,1-5.057.706c-5.761,0-9.264-1.145-11.713-2.826s-4.065-4.076-5.54-7.4c-2.308-5.2-3.987-12.464-7.772-20.005Zm43.4,52.839c5.3,0,10.022,2.581,12.2,7.4a3.571,3.571,0,0,0,3.273,2.119A18.775,18.775,0,0,1,177.885,152a8.8,8.8,0,0,1,1.673,1.711h-56A8.81,8.81,0,0,1,125.231,152a18.775,18.775,0,0,1,10.858-3.05,3.571,3.571,0,0,0,3.273-2.119c2.175-4.82,6.893-7.4,12.2-7.4Z" transform="translate(621.443 1243.21)" fill="#3ea232"/>
    <path id="Path_60" data-name="Path 60" d="M235.372,54.715a26.6,26.6,0,0,0-6.325-.231,26.5,26.5,0,0,0-.231-6.324,3.3,3.3,0,1,0-6.536.962,16.647,16.647,0,0,1-.125,6.52,12.51,12.51,0,0,0-14.3,2.368,7.466,7.466,0,0,0-.7.793L191.671,76.64l1.383-17.917a8.244,8.244,0,0,0,.061-1.153,12.461,12.461,0,0,0-8.426-11.75,16.684,16.684,0,0,1,4.518-4.691,3.3,3.3,0,0,0-3.942-5.3,26.537,26.537,0,0,0-4.636,4.3,26.533,26.533,0,0,0-4.636-4.306,3.3,3.3,0,0,0-3.942,5.3,16.66,16.66,0,0,1,4.524,4.7,12.3,12.3,0,0,0-8.391,12.69l1.775,22.9h-9.151a3.3,3.3,0,0,0-3.3,3.3v39.64a3.3,3.3,0,0,0,3.3,3.3h66.066a3.3,3.3,0,0,0,3.3-3.3V84.724a3.3,3.3,0,0,0-3.3-3.3h-7.944l5.938-5.16a12.269,12.269,0,0,0,3.019-14.883,16.691,16.691,0,0,1,6.523-.127,3.3,3.3,0,0,0,.961-6.536Zm-59.556,16.8h1.509a3.3,3.3,0,1,0,0-6.607H175.3l-.533-6.884a5.877,5.877,0,1,1,11.736-.45l-.056.727h-2.52a3.3,3.3,0,1,0,0,6.607h2.011l-.509,6.607h-1.5a3.3,3.3,0,1,0,0,6.607h.994l-.254,3.3h-8.087Zm47.754,49.55H164.111V107.847h59.459Zm0-19.82H164.111V88.027h59.459Zm-3.024-29.977L215.331,75.8l-1.463-1.463h0A3.3,3.3,0,1,0,209.2,79l1.136,1.135-1.473,1.281H196.27l2.79-3.207.791.791a3.3,3.3,0,1,0,4.675-4.671l-1.117-1.118,4.347-5L209.2,69.66h0a3.3,3.3,0,0,0,4.671-4.671l-1.784-1.784.187-.218h0a3.645,3.645,0,0,0,.291-.342,5.879,5.879,0,1,1,7.986,8.617ZM214.619,116.8a3.351,3.351,0,0,1,0-4.691,3.836,3.836,0,0,1,1.09-.694,3.324,3.324,0,0,1,2.51,0,3.838,3.838,0,0,1,1.091.694,3.351,3.351,0,0,1,0,4.691,3.855,3.855,0,0,1-1.091.694,3.112,3.112,0,0,1-2.51,0A3.837,3.837,0,0,1,214.619,116.8ZM173.063,92.287a3.317,3.317,0,1,1-3.2-.848A3.32,3.32,0,0,1,173.063,92.287ZM168.372,116.8a3.317,3.317,0,1,1,3.2.848,3.32,3.32,0,0,1-3.2-.848Zm46.246-19.82a3.351,3.351,0,0,1,0-4.691,3.837,3.837,0,0,1,1.09-.694,3.03,3.03,0,0,1,2.51,0,3.837,3.837,0,0,1,1.091.694,3.351,3.351,0,0,1,0,4.691,3.853,3.853,0,0,1-1.091.694,3.111,3.111,0,0,1-2.51,0A3.837,3.837,0,0,1,214.618,96.978Z" transform="translate(219.116 1276.117)" fill="#3ea232"/>
  </g>
</svg>
