<svg xmlns="http://www.w3.org/2000/svg" width="140.758" height="155.456" viewBox="0 0 140.758 155.456">
  <g id="noun-potato-730268" transform="translate(0 111.284) rotate(-60)">
    <path id="Path_65" data-name="Path 65" d="M94.366,16.062c-7.63,0-13.051-3.012-19.074-6.626C67.662,5.02,59.028,0,44.172,0,27.105,0,0,11.445,0,42.164c0,29.314,23.493,46.18,64.25,46.18,42.566,0,64.25-12.85,64.25-38.148A33.851,33.851,0,0,0,94.367,16.062ZM64.249,84.328c-22.487,0-60.234-5.421-60.234-42.164,0-27.708,24.695-38.148,40.156-38.148,13.653,0,21.484,4.417,29.114,8.834,6.224,3.815,12.248,7.228,21.082,7.228A29.825,29.825,0,0,1,124.484,50.2c0,22.889-19.677,34.133-60.234,34.133ZM44.171,14.055A30.832,30.832,0,0,0,19.675,25.9a2.379,2.379,0,0,1-2.811.4,2.159,2.159,0,0,1-.4-2.811A35.017,35.017,0,0,1,44.171,10.039a1.9,1.9,0,0,1,2.008,2.008A1.9,1.9,0,0,1,44.171,14.055ZM15.859,32.928a24.411,24.411,0,0,0-1.807,9.236,1.9,1.9,0,0,1-2.008,2.008,1.9,1.9,0,0,1-2.008-2.008,29.577,29.577,0,0,1,2.008-10.842,2.089,2.089,0,0,1,2.61-1.2A2.326,2.326,0,0,1,15.859,32.928Zm19.877-4.216c1.807,2.008,2.409,4.216,2.409,7.429a10.193,10.193,0,0,1-2.61,7.429,1.993,1.993,0,0,1-3.012-2.61c1-1,1.405-2.209,1.405-4.618,0-2.209,0-3.614-1.405-4.819-.8-.6-.6-2.209.2-3.012A2.194,2.194,0,0,1,35.737,28.712Zm26.1-8.031c1.807,2.008,2.409,4.216,2.409,7.429a10.193,10.193,0,0,1-2.61,7.429,1.993,1.993,0,1,1-3.012-2.61c1-1,1.405-2.209,1.405-4.618,0-2.209,0-3.614-1.405-4.819-.8-.6-.6-2.209.2-3.012A2.194,2.194,0,0,1,61.838,20.68Zm26.1,8.031c1.807,2.008,2.409,4.216,2.409,7.429a10.193,10.193,0,0,1-2.61,7.429,1.993,1.993,0,0,1-3.012-2.61c1-1,1.405-2.209,1.405-4.618,0-2.209,0-3.614-1.405-4.819-.8-.6-.6-2.209.2-3.012A2.194,2.194,0,0,1,87.94,28.712ZM47.784,52.805c1.807,2.008,2.409,4.216,2.409,7.429a10.193,10.193,0,0,1-2.61,7.429,1.993,1.993,0,0,1-3.012-2.61c1-1,1.406-2.209,1.406-4.618,0-2.209,0-3.614-1.406-4.819-.8-.6-.6-2.209.2-3.012A2.194,2.194,0,0,1,47.784,52.805Zm24.094,6.023c1.807,2.008,2.409,4.216,2.409,7.429a10.193,10.193,0,0,1-2.61,7.429,1.993,1.993,0,0,1-3.012-2.61c1-1,1.405-2.209,1.405-4.618,0-2.209,0-3.614-1.405-4.819-.8-.6-.6-2.209.2-3.012A2.194,2.194,0,0,1,71.877,58.829Zm30.117-4.016c1.807,2.008,2.409,4.216,2.409,7.429a10.193,10.193,0,0,1-2.61,7.429,1.993,1.993,0,0,1-3.012-2.61c1-1,1.405-2.209,1.405-4.618,0-2.209,0-3.614-1.405-4.819-.8-.6-.6-2.209.2-3.012A2.194,2.194,0,0,1,101.994,54.813Z" transform="translate(0 0)" fill="#fff"/>
  </g>
</svg>
