<?xml version="1.0" encoding="UTF-8"?>
<svg xmlns="http://www.w3.org/2000/svg" id="Group_24" data-name="Group 24" width="75.364" height="54.939" viewBox="0 0 75.364 54.939">
  <path id="Path_51" data-name="Path 51" d="M113.27,259.45a15.27,15.27,0,1,0,15.27,15.27A15.288,15.288,0,0,0,113.27,259.45Zm0,26.748a11.477,11.477,0,1,1,11.476-11.477A11.489,11.489,0,0,1,113.27,286.2Z" transform="translate(-98 -235.052)" fill="#3ea232"></path>
  <path id="Path_52" data-name="Path 52" d="M487.324,339.75a9.267,9.267,0,1,0,9.266,9.267A9.277,9.277,0,0,0,487.324,339.75Zm0,14.74a5.473,5.473,0,1,1,5.472-5.473A5.479,5.479,0,0,1,487.324,354.49Z" transform="translate(-421.226 -303.344)" fill="#3ea232"></path>
  <path id="Path_53" data-name="Path 53" d="M332.416,372.98H312.549a1.9,1.9,0,1,0,0,3.794h19.867a1.9,1.9,0,1,0,0-3.794Z" transform="translate(-278.854 -331.605)" fill="#3ea232"></path>
  <path id="Path_54" data-name="Path 54" d="M439.4,330.06a.949.949,0,0,0,0,1.9h5.744a.949.949,0,0,0,0-1.9Z" transform="translate(-387.547 -295.103)" fill="#3ea232"></path>
  <path id="Path_55" data-name="Path 55" d="M152.263,100.083h1.422l-2.251,17.88a1.972,1.972,0,0,0,2.363,2.31,16.367,16.367,0,0,1,20.022,11.873,1.9,1.9,0,0,0,1.88,1.655h6.838a1.9,1.9,0,0,0,1.891-2.05l-.707-8.755h20.773v1.925h-10.1a.949.949,0,0,0,0,1.9h10.1v1.265h-10.1a.949.949,0,0,0,0,1.9H204.5a1.9,1.9,0,0,0,3.786-.16V121.1a1.9,1.9,0,0,0-1.9-1.9H193.6v-9.252l1.975-1.482a1.9,1.9,0,1,0-2.276-3.035l-2.734,2.051a1.9,1.9,0,0,0-.759,1.517v10.2h-6.384c-.3-3.954-1.034-13.5-1.39-17.192a6.343,6.343,0,0,0-5.839-5.709c-.075,0-.151-.009-18.063-.012h-5.868a1.9,1.9,0,0,0,0,3.8Zm3.23,16.013,2.016-16.013,6.814,0v16.887a20.282,20.282,0,0,0-8.83-.875Zm22.763-13.724c.447,4.646,1.5,18.724,1.516,18.866,0,0,0,0,0,0v.007l.707,8.755h-3.325a20.036,20.036,0,0,0-9.038-11.326V100.086c4.071,0,7.423,0,7.884.005a2.521,2.521,0,0,1,2.256,2.282Z" transform="translate(-142.536 -96.286)" fill="#3ea232"></path>
</svg>
