<?xml version="1.0" encoding="UTF-8"?>
<svg xmlns="http://www.w3.org/2000/svg" xmlns:xlink="http://www.w3.org/1999/xlink" width="138.111" height="45.191" viewBox="0 0 138.111 45.191">
  <defs>
    <linearGradient id="linear-gradient" x1="0.23" y1="1.346" x2="-0.747" y2="0.512" gradientUnits="objectBoundingBox">
      <stop offset="0" stop-color="#34a838"></stop>
      <stop offset="0.999" stop-color="#78b72a"></stop>
    </linearGradient>
    <linearGradient id="linear-gradient-2" x1="311.468" y1="18.328" x2="310.594" y2="17.405" xlink:href="#linear-gradient"></linearGradient>
    <linearGradient id="linear-gradient-3" x1="0.5" y1="1.09" x2="0.5" y2="-0.998" gradientUnits="objectBoundingBox">
      <stop offset="0" stop-color="#dd4a13"></stop>
      <stop offset="0.122" stop-color="#df4e11"></stop>
      <stop offset="0.749" stop-color="#ea640b"></stop>
    </linearGradient>
  </defs>
  <g id="Group_39" data-name="Group 39" transform="translate(-275.537 -437.459)">
    <g id="Group_3" data-name="Group 3" transform="translate(275.537 447.418)">
      <g id="Group_2" data-name="Group 2">
        <path id="Path_2" data-name="Path 2" d="M287.544,490.983l-6.063.01.009,5.843a.987.987,0,0,1-.986.989l-3.95.006a.873.873,0,0,1-.989-.986l-.028-17.448a.873.873,0,0,1,.986-.989l11.358-.018a.988.988,0,0,1,.989.986l0,2.963a.987.987,0,0,1-.986.989l-6.419.01,0,2.826,6.063-.01a.861.861,0,0,1,.962.986l0,2.88A.96.96,0,0,1,287.544,490.983Z" transform="translate(-275.537 -478.016)"></path>
        <path id="Path_3" data-name="Path 3" d="M340.412,478.328l7-.011q4.142-.006,6.23,1.595t2.093,5.36a5.868,5.868,0,0,1-3.5,5.794l3.3,5.427a.913.913,0,0,1,.138.864.671.671,0,0,1-.685.371l-4.006.006a1.5,1.5,0,0,1-1.373-.794l-2.834-4.961-1.4,0,.008,4.774a.988.988,0,0,1-.986.989l-3.95.006a.873.873,0,0,1-.989-.986l-.028-17.448A.873.873,0,0,1,340.412,478.328Zm4.952,8.991,1.975,0a2.789,2.789,0,0,0,1.851-.5,2.5,2.5,0,0,0,.009-3.141,3.115,3.115,0,0,0-1.866-.423l-1.975,0Z" transform="translate(-323.296 -477.96)"></path>
        <path id="Path_4" data-name="Path 4" d="M427.329,490.1l-6.173.01,0,2.551,6.748-.011a.988.988,0,0,1,.989.986l0,2.963a.873.873,0,0,1-.986.989l-11.632.018a.873.873,0,0,1-.989-.986l-.027-17.448a.873.873,0,0,1,.986-.989l11.467-.018a.873.873,0,0,1,.989.986l0,2.963a.988.988,0,0,1-.986.989l-6.584.01,0,2.277,6.173-.01a.861.861,0,0,1,.962.986l0,2.771A.961.961,0,0,1,427.329,490.1Z" transform="translate(-379.989 -477.851)"></path>
        <path id="Path_5" data-name="Path 5" d="M493.664,490.885a5.517,5.517,0,0,1-1.092,3.513,5.809,5.809,0,0,1-2.754,1.966,11.741,11.741,0,0,1-3.771.568,14.29,14.29,0,0,1-6.723-1.361.9.9,0,0,1-.523-1.234l.956-2.553q.383-.96,1.261-.578a10.206,10.206,0,0,0,3.9.817q2.771,0,2.769-1.156a1.013,1.013,0,0,0-.632-.849,13.209,13.209,0,0,0-2.113-.848q-1.071-.354-1.784-.642a10.4,10.4,0,0,1-1.593-.834,4.972,4.972,0,0,1-2.281-2.836,6.712,6.712,0,0,1-.36-2.263q-.009-5.679,7.481-5.69a12.278,12.278,0,0,1,5.928,1.252.911.911,0,0,1,.523,1.234l-.929,2.416a.9.9,0,0,1-1.261.578,11.381,11.381,0,0,0-3.622-.57,5.069,5.069,0,0,0-1.591.194.767.767,0,0,0-.548.8,1.072,1.072,0,0,0,.619.877,12.691,12.691,0,0,0,2.1.929l1.208.451q.329.123,1.07.437a6.4,6.4,0,0,1,1.057.534l.865.6a2.919,2.919,0,0,1,.8.767q.248.384.536.9a3.669,3.669,0,0,1,.4,1.165A8.507,8.507,0,0,1,493.664,490.885Z" transform="translate(-427.421 -476.905)"></path>
        <path id="Path_6" data-name="Path 6" d="M559.092,496.385l-.01-6.227-4.39.007.01,6.227a.988.988,0,0,1-.986.989l-4.005.006a.873.873,0,0,1-.989-.986l-.027-17.448a.873.873,0,0,1,.986-.989l4.005-.006a.988.988,0,0,1,.989.986l.009,5.953,4.39-.007-.009-5.953a.987.987,0,0,1,.986-.989l4.005-.007a.873.873,0,0,1,.989.986l.027,17.448a.873.873,0,0,1-.986.989l-4.005.007A.988.988,0,0,1,559.092,496.385Z" transform="translate(-479.729 -477.68)"></path>
        <path id="Path_7" data-name="Path 7" d="M277.068,581.3H276.2a.283.283,0,0,1-.284-.283l-.017-11.131q0-.283.266-.284l3.233,0a5.836,5.836,0,0,1,3.709.952,4.687,4.687,0,0,1,.01,6.207,5.873,5.873,0,0,1-3.706.956l-2.066,0,.005,3.3A.283.283,0,0,1,277.068,581.3Zm.275-4.9,2.066,0a4.289,4.289,0,0,0,2.615-.629,3.2,3.2,0,0,0-.007-4.232,4.294,4.294,0,0,0-2.617-.621l-2.066,0Z" transform="translate(-275.808 -546.199)"></path>
        <path id="Path_8" data-name="Path 8" d="M320.665,569.537l3.4-.006a5.682,5.682,0,0,1,3.584.919,3.428,3.428,0,0,1,1.154,2.839q0,3.2-3.394,3.6l3.406,3.977a.244.244,0,0,1,.059.24c-.028.075-.1.112-.222.112l-1,0a.522.522,0,0,1-.41-.222l-3.379-3.971-2.033,0,.006,3.916a.284.284,0,0,1-.283.284h-.866a.284.284,0,0,1-.284-.283l-.017-11.148Q320.382,569.537,320.665,569.537Zm1.159,6.18,2.183,0a4.41,4.41,0,0,0,2.59-.579,2.635,2.635,0,0,0-.022-3.716,4.342,4.342,0,0,0-2.542-.571l-2.216,0Z" transform="translate(-309.06 -546.145)"></path>
        <path id="Path_9" data-name="Path 9" d="M363.354,570.3a5.231,5.231,0,0,1,7.465-.012,8.307,8.307,0,0,1,.014,8.923,5.25,5.25,0,0,1-7.465.012,8.307,8.307,0,0,1-.014-8.923Zm1.071,7.971a3.564,3.564,0,0,0,5.349-.008,7.362,7.362,0,0,0-.011-7.023,3.549,3.549,0,0,0-5.349.008,7.362,7.362,0,0,0,.011,7.023Z" transform="translate(-340.216 -545.549)"></path>
        <path id="Path_10" data-name="Path 10" d="M415.962,581.087l-2.883,0a.283.283,0,0,1-.284-.283l-.018-11.148a.267.267,0,0,1,.266-.267l2.866,0a6.438,6.438,0,0,1,4.376,1.293q1.477,1.3,1.482,4.347.005,3.316-1.451,4.684A6.163,6.163,0,0,1,415.962,581.087Zm-.066-10.364-1.683,0,.014,9.031,1.717,0a7.144,7.144,0,0,0,1.849-.211,3.39,3.39,0,0,0,1.357-.727,3.045,3.045,0,0,0,.872-1.451,8.155,8.155,0,0,0,.28-2.334,4.3,4.3,0,0,0-1.1-3.364A4.931,4.931,0,0,0,415.9,570.723Z" transform="translate(-378.128 -546.04)"></path>
        <path id="Path_11" data-name="Path 11" d="M466.511,580.05a4.419,4.419,0,0,1-7.72-3.187l-.012-7.3c0-.177.094-.267.283-.267h.867q.283,0,.284.266l.011,7.2q0,3.116,2.988,3.111t2.978-3.121l-.011-7.2a.267.267,0,0,1,.266-.267h.883a.266.266,0,0,1,.267.266l.011,7.3A4.4,4.4,0,0,1,466.511,580.05Z" transform="translate(-412.515 -545.961)"></path>
        <path id="Path_12" data-name="Path 12" d="M509.892,579.238a4.745,4.745,0,0,0,2.315-.587q.233-.084.35.183l.318.716q.017.184-.216.3a5.583,5.583,0,0,1-2.965.7A4.914,4.914,0,0,1,505.8,579a6.525,6.525,0,0,1-1.382-4.455,6.612,6.612,0,0,1,1.351-4.468,4.79,4.79,0,0,1,3.822-1.572,5.731,5.731,0,0,1,2.934.662q.267.133.2.316l-.282.7a.231.231,0,0,1-.366.151,4.907,4.907,0,0,0-2.284-.513,3.577,3.577,0,0,0-2.923,1.2,5.4,5.4,0,0,0-.986,3.517Q505.893,579.245,509.892,579.238Z" transform="translate(-446.632 -545.38)"></path>
        <path id="Path_13" data-name="Path 13" d="M543.917,570.216v-.783a.236.236,0,0,1,.266-.267l7.582-.012q.283,0,.284.266v.783a.283.283,0,0,1-.283.284l-3.066,0,.016,10.081a.283.283,0,0,1-.283.284h-.866a.283.283,0,0,1-.284-.283l-.016-10.081-3.066,0A.284.284,0,0,1,543.917,570.216Z" transform="translate(-476.157 -545.863)"></path>
        <path id="Path_14" data-name="Path 14" d="M590.413,577.283a2.642,2.642,0,0,1-1.154,2.318,5.551,5.551,0,0,1-3.19.8,7.964,7.964,0,0,1-3.283-.528q-.267-.116-.217-.316l.265-.75q.066-.283.333-.167a7.609,7.609,0,0,0,2.85.479,4.165,4.165,0,0,0,2.174-.487,1.532,1.532,0,0,0,.789-1.384,1.961,1.961,0,0,0-.084-.583,1.224,1.224,0,0,0-.334-.507q-.25-.241-.418-.383a2.805,2.805,0,0,0-.623-.342l-.623-.275-.745-.329-.73-.321-.684-.3a2.629,2.629,0,0,1-.635-.368l-.5-.43a1.774,1.774,0,0,1-.435-.526,3.256,3.256,0,0,1-.243-.649,3.14,3.14,0,0,1-.1-.808,2.7,2.7,0,0,1,.988-2.243,4.8,4.8,0,0,1,3.023-.8,7.47,7.47,0,0,1,2.883.478q.267.1.2.316l-.265.733q-.083.25-.35.151a6.437,6.437,0,0,0-2.367-.38,3.746,3.746,0,0,0-2.041.434,1.589,1.589,0,0,0-.569,1.74,2.347,2.347,0,0,0,.149.364,1.209,1.209,0,0,0,.3.334l.367.306a1.826,1.826,0,0,0,.421.244l.414.183.478.212.471.21.855.38q.232.1.777.383a3.544,3.544,0,0,1,.78.5,7.578,7.578,0,0,1,.537.577,2.029,2.029,0,0,1,.42.775A3.555,3.555,0,0,1,590.413,577.283Z" transform="translate(-505.044 -545.293)"></path>
      </g>
    </g>
    <g id="Group_38" data-name="Group 38" transform="translate(369.792 437.459)">
      <path id="Path_75" data-name="Path 75" d="M912.829,457.1c-2.879-2.819-6.415-3.8-10.087-4.245-.138.274.043.4.127.53a12.066,12.066,0,0,1,1.61,4.263,22.13,22.13,0,0,0,2.382,7.242,6.079,6.079,0,0,0,5.144,3.165,23.378,23.378,0,0,0-3.078-7.72c.024-.16.026-.335.2-.4.1.047.23.061.289.145a33.542,33.542,0,0,1,4.57,8.513,5.8,5.8,0,0,0,.808,1.973,36.166,36.166,0,0,1,.579-5.478A9.037,9.037,0,0,0,912.829,457.1Z" transform="translate(-893.246 -452.856)" fill="url(#linear-gradient)"></path>
      <path id="Path_76" data-name="Path 76" d="M955.974,474.129a11.038,11.038,0,0,1,7.092-1.941c.068.195-.063.261-.131.342a8.108,8.108,0,0,0-1.448,2.7,14.866,14.866,0,0,1-2.223,4.614,4.084,4.084,0,0,1-3.7,1.656,15.7,15.7,0,0,1,2.728-4.872c0-.109.012-.225-.095-.283-.069.023-.159.02-.2.072a22.526,22.526,0,0,0-3.792,5.269,3.9,3.9,0,0,1-.712,1.243,24.3,24.3,0,0,0,.1-3.7A6.071,6.071,0,0,1,955.974,474.129Z" transform="translate(-930.723 -467.119)" fill="url(#linear-gradient-2)"></path>
      <g id="Group_38-2" data-name="Group 38" transform="translate(0 12.247)">
        <path id="Path_77" data-name="Path 77" d="M891.206,507.226c2.7-2.333,5.016-4.537,6.961-6.509a3.792,3.792,0,0,1,3.695-1.015,41.09,41.09,0,0,0,6.955,1.226,1.914,1.914,0,0,1,1.528,2.7A94.939,94.939,0,0,1,903.2,516.7a.625.625,0,0,1-.879.176,124.641,124.641,0,0,1-11.121-8.646A.67.67,0,0,1,891.206,507.226Zm-5.236,0c-2.7-2.333-5.016-4.537-6.961-6.509a3.792,3.792,0,0,0-3.695-1.015,41.089,41.089,0,0,1-6.955,1.226,1.914,1.914,0,0,0-1.528,2.7A94.928,94.928,0,0,0,873.98,516.7a.625.625,0,0,0,.879.176,124.651,124.651,0,0,0,11.121-8.646A.67.67,0,0,0,885.97,507.226Zm4.071,24.781a67.5,67.5,0,0,0,11.31-11.986.665.665,0,0,0-.135-.938,133.054,133.054,0,0,1-12.232-9.946.6.6,0,0,0-.82,0,133.064,133.064,0,0,1-12.232,9.946.665.665,0,0,0-.135.938,67.488,67.488,0,0,0,11.31,11.986A2.37,2.37,0,0,0,890.041,532.008Z" transform="translate(-866.66 -499.573)" fill="url(#linear-gradient-3)"></path>
      </g>
    </g>
  </g>
</svg>
