<?xml version="1.0" encoding="UTF-8"?>
<svg xmlns="http://www.w3.org/2000/svg" width="58.97" height="83.677" viewBox="0 0 58.97 83.677">
  <g id="Group_59" data-name="Group 59" transform="translate(-193.322 -54.999)">
    <path id="Path_125" data-name="Path 125" d="M345.935,81.405a1.327,1.327,0,1,1-1.327-1.327,1.327,1.327,0,0,1,1.327,1.327" transform="translate(-121.802 -19.689)" fill="#4eaa34"></path>
    <path id="Path_126" data-name="Path 126" d="M222.806,56a5.925,5.925,0,0,0-5.922,5.922v.511h-5.82a.965.965,0,0,0-1.021,1.021v2.042h-14.7a.965.965,0,0,0-1.021,1.021v70.14a.965.965,0,0,0,1.021,1.021h54.928a.965.965,0,0,0,1.021-1.021V66.515a.965.965,0,0,0-1.021-1.021h-14.6V63.452a.965.965,0,0,0-1.021-1.021h-5.82V61.92A6.081,6.081,0,0,0,222.807,56Zm26.443,79.635H196.364v-68.1h4.9v62.381a.965.965,0,0,0,1.021,1.021H243.43a.965.965,0,0,0,1.021-1.021V67.536h4.8Zm-6.841-68.1V128.9h-39.1V67.536h6.739V70.5a.965.965,0,0,0,1.021,1.021H234.65a.965.965,0,0,0,1.021-1.021v-2.96Zm-8.78-3.063v5H212.087v-5h5.82a.965.965,0,0,0,1.021-1.021V61.921a3.88,3.88,0,1,1,7.76,0v1.531a.965.965,0,0,0,1.021,1.021Z" fill="#4eaa34" stroke="#4eaa34" stroke-width="2"></path>
    <path id="Path_127" data-name="Path 127" d="M268.24,363.9a.965.965,0,0,0,1.021,1.021h28.076a1.021,1.021,0,0,0,0-2.043H269.261A.965.965,0,0,0,268.24,363.9Z" transform="translate(-60.442 -250.93)" fill="#4eaa34"></path>
    <path id="Path_128" data-name="Path 128" d="M297.336,412.72H269.259a1.021,1.021,0,1,0,0,2.042h28.076a.965.965,0,0,0,1.021-1.021A1.024,1.024,0,0,0,297.336,412.72Z" transform="translate(-60.44 -291.686)" fill="#4eaa34"></path>
    <path id="Path_129" data-name="Path 129" d="M308.394,189.135h-4.6l.622-5.347a4.612,4.612,0,0,0-1.119-3.544,5.162,5.162,0,0,0-1.679-1.181l.062-2.425h5.347a1.539,1.539,0,0,0,1.554-1.554v-.124a1.527,1.527,0,0,0-.311-.933,1.528,1.528,0,0,0,.311-.933v-.124a1.527,1.527,0,0,0-.311-.933,1.527,1.527,0,0,0,.311-.933v-.124a1.527,1.527,0,0,0-.311-.933,1.527,1.527,0,0,0,.311-.933v-.124a1.539,1.539,0,0,0-1.554-1.554H301.99l.062-1.8,3.233-2.114a.629.629,0,1,0-.684-1.057l-3.482,2.3a.854.854,0,0,0-.311.5l-.435,13.367h-.5V165.571a.742.742,0,0,0-.311-.56l-3.606-2.176a.629.629,0,0,0-.684,1.057l3.3,1.989v2.238l-1.616-1.243a.061.061,0,0,1-.062-.062,3.382,3.382,0,0,0-3.917.373l-.746.622H289.68a.587.587,0,0,0-.622.622v6.155a.587.587,0,0,0,.622.622h1.99l.311.373a4.206,4.206,0,0,0,3.171,1.43h3.357v1.865a4.317,4.317,0,0,0-2.114,1.368,4.612,4.612,0,0,0-1.119,3.544l.622,5.347h-5.409a.622.622,0,0,0,0,1.244h17.72a.587.587,0,0,0,.622-.622c0-.373-.062-.622-.435-.622Zm-.995-18.092v.124a.294.294,0,0,1-.311.311h-2.8a.294.294,0,0,1-.311-.311v-.124a.294.294,0,0,1,.311-.311h2.8A.333.333,0,0,1,307.4,171.043Zm0,1.99v.124a.294.294,0,0,1-.311.311h-2.8a.294.294,0,0,1-.311-.311v-.124a.294.294,0,0,1,.311-.311h2.8A.294.294,0,0,1,307.4,173.032Zm0,2.052a.294.294,0,0,1-.311.311h-2.8a.294.294,0,0,1-.311-.311v-.124a.294.294,0,0,1,.311-.311h2.8a.294.294,0,0,1,.311.311Zm0-5.969v.124a.294.294,0,0,1-.311.311h-2.8a.294.294,0,0,1-.311-.311v-.124a.294.294,0,0,1,.311-.311h2.8A.294.294,0,0,1,307.4,169.115Zm-4.6-.311c0,.124-.062.187-.062.311v.124a1.527,1.527,0,0,0,.311.933,1.527,1.527,0,0,0-.311.933v.124a1.527,1.527,0,0,0,.311.933,1.527,1.527,0,0,0-.311.933v.124a1.528,1.528,0,0,0,.311.933,1.527,1.527,0,0,0-.311.933v.124a.56.56,0,0,0,.062.311H301.8l.249-6.653h.746Zm-7.461,7.026a3.01,3.01,0,0,1-2.238-.995l-.5-.56a.672.672,0,0,0-.435-.187h-1.679v-4.912h2.176a.672.672,0,0,0,.435-.187l.871-.808a2.061,2.061,0,0,1,2.425-.249l1.989,1.554.062.062a.7.7,0,0,1,.311.5v.187a.467.467,0,0,1-.311.435.511.511,0,0,1-.435.062l-2.611-1.554a.64.64,0,1,0-.622,1.119l2.673,1.554a1.747,1.747,0,0,0,1.368.062v3.917Zm1.99,13.305-.435-3.606h3.046a.622.622,0,0,0,0-1.244h-3.171l-.062-.622a3.179,3.179,0,0,1,.808-2.549A3.337,3.337,0,0,1,300,180a3.131,3.131,0,0,1,2.487,1.119,2.486,2.486,0,0,1,.622,1.119h-1.617a.622.622,0,0,0,0,1.243h1.8v.249l-.311,2.611h-2.363a.622.622,0,0,0,0,1.244h2.238l-.186,1.616h-5.347Z" transform="translate(-77.464 -86.968)" fill="#4eaa34"></path>
  </g>
</svg>
