<?xml version="1.0" encoding="UTF-8"?>
<svg xmlns="http://www.w3.org/2000/svg" width="63.24" height="72.502" viewBox="0 0 63.24 72.502">
  <path id="Path_60" data-name="Path 60" d="M218.57,50.507a20.86,20.86,0,0,0-4.96-.181,20.779,20.779,0,0,0-.181-4.96,2.591,2.591,0,1,0-5.125.754,13.054,13.054,0,0,1-.1,5.113,9.81,9.81,0,0,0-11.211,1.857,5.855,5.855,0,0,0-.546.622L184.3,67.7l1.085-14.051a6.467,6.467,0,0,0,.048-.9,9.772,9.772,0,0,0-6.608-9.214,13.084,13.084,0,0,1,3.543-3.679,2.59,2.59,0,0,0-3.091-4.156,20.81,20.81,0,0,0-3.636,3.375A20.808,20.808,0,0,0,172,35.7a2.59,2.59,0,0,0-3.091,4.156,13.065,13.065,0,0,1,3.547,3.688,9.645,9.645,0,0,0-6.58,9.951l1.392,17.959H160.1a2.59,2.59,0,0,0-2.59,2.59v31.086a2.59,2.59,0,0,0,2.59,2.59h51.81a2.59,2.59,0,0,0,2.59-2.59V74.04a2.59,2.59,0,0,0-2.59-2.59h-6.23l4.657-4.046A9.621,9.621,0,0,0,212.7,55.732a13.089,13.089,0,0,1,5.115-.1,2.591,2.591,0,0,0,.754-5.125Zm-46.7,13.172h1.183a2.59,2.59,0,1,0,0-5.181h-1.584l-.418-5.4a4.609,4.609,0,1,1,9.2-.353l-.044.57h-1.976a2.59,2.59,0,1,0,0,5.181h1.577l-.4,5.181h-1.178a2.59,2.59,0,1,0,0,5.181h.779l-.2,2.59h-6.342Zm37.45,38.857H162.686V92.174h46.629Zm0-15.543H162.686V76.631h46.629Zm-2.371-23.508-4.09,3.554-1.147-1.147h0a2.59,2.59,0,1,0-3.663,3.663l.891.89-1.155,1h-9.872l2.188-2.515.62.62a2.591,2.591,0,1,0,3.666-3.663l-.876-.877,3.409-3.918,1.13,1.13h0a2.591,2.591,0,0,0,3.663-3.663l-1.4-1.4.146-.171h0a2.859,2.859,0,0,0,.228-.268,4.61,4.61,0,1,1,6.263,6.757Zm-4.649,35.709a2.628,2.628,0,0,1,0-3.679,3.009,3.009,0,0,1,.855-.544,2.606,2.606,0,0,1,1.968,0,3.01,3.01,0,0,1,.855.544,2.628,2.628,0,0,1,0,3.679,3.023,3.023,0,0,1-.855.544,2.44,2.44,0,0,1-1.968,0A3.009,3.009,0,0,1,202.295,99.193ZM169.706,79.972a2.6,2.6,0,1,1-2.508-.665A2.6,2.6,0,0,1,169.706,79.972Zm-3.679,19.221a2.6,2.6,0,1,1,2.508.665,2.6,2.6,0,0,1-2.508-.665ZM202.294,83.65a2.628,2.628,0,0,1,0-3.679,3.009,3.009,0,0,1,.855-.544,2.376,2.376,0,0,1,1.968,0,3.009,3.009,0,0,1,.855.544,2.628,2.628,0,0,1,0,3.679,3.022,3.022,0,0,1-.855.544,2.44,2.44,0,0,1-1.968,0A3.009,3.009,0,0,1,202.294,83.65Z" transform="translate(-157.506 -35.215)" fill="#3ea232"></path>
</svg>
