<?xml version="1.0" encoding="UTF-8"?>
<svg xmlns="http://www.w3.org/2000/svg" xmlns:xlink="http://www.w3.org/1999/xlink" id="Component_13_3" data-name="Component 13 – 3" width="265.734" height="86.949" viewBox="0 0 265.734 86.949">
  <defs>
    <linearGradient id="linear-gradient" x1="0.23" y1="1.346" x2="-0.747" y2="0.512" gradientUnits="objectBoundingBox">
      <stop offset="0" stop-color="#34a838"></stop>
      <stop offset="0.999" stop-color="#78b72a"></stop>
    </linearGradient>
    <linearGradient id="linear-gradient-2" x1="311.468" y1="18.328" x2="310.594" y2="17.405" xlink:href="#linear-gradient"></linearGradient>
    <linearGradient id="linear-gradient-3" x1="0.5" y1="1.09" x2="0.5" y2="-0.998" gradientUnits="objectBoundingBox">
      <stop offset="0" stop-color="#dd4a13"></stop>
      <stop offset="0.122" stop-color="#df4e11"></stop>
      <stop offset="0.749" stop-color="#ea640b"></stop>
    </linearGradient>
  </defs>
  <g id="Group_3" data-name="Group 3" transform="translate(0 19.162)">
    <g id="Group_2" data-name="Group 2">
      <path id="Path_2" data-name="Path 2" d="M298.639,502.619l-11.665.018.017,11.243a1.9,1.9,0,0,1-1.9,1.9l-7.6.012a1.68,1.68,0,0,1-1.9-1.9l-.053-33.57a1.679,1.679,0,0,1,1.9-1.9l21.853-.034a1.9,1.9,0,0,1,1.9,1.9l.009,5.7a1.9,1.9,0,0,1-1.9,1.9l-12.351.019.008,5.437,11.665-.018a1.657,1.657,0,0,1,1.85,1.9l.009,5.542A1.848,1.848,0,0,1,298.639,502.619Z" transform="translate(-275.537 -477.669)" fill="#fff"></path>
      <path id="Path_3" data-name="Path 3" d="M341.323,478.338l13.459-.021q7.97-.012,11.987,3.069T370.8,491.7q.013,7.971-6.739,11.148l6.351,10.441a1.757,1.757,0,0,1,.266,1.662,1.291,1.291,0,0,1-1.318.715l-7.707.012a2.879,2.879,0,0,1-2.642-1.527l-5.452-9.545-2.692,0,.015,9.185a1.9,1.9,0,0,1-1.9,1.9l-7.6.012a1.679,1.679,0,0,1-1.9-1.9l-.053-33.571A1.68,1.68,0,0,1,341.323,478.338Zm9.528,17.3,3.8-.006a5.367,5.367,0,0,0,3.561-.955,4.8,4.8,0,0,0,.017-6.044,5.993,5.993,0,0,0-3.591-.813l-3.8.006Z" transform="translate(-308.39 -477.631)" fill="#fff"></path>
      <path id="Path_4" data-name="Path 4" d="M438.473,501.132l-11.877.018.008,4.909,12.984-.02a1.9,1.9,0,0,1,1.9,1.9l.009,5.7a1.68,1.68,0,0,1-1.9,1.9l-22.38.035a1.68,1.68,0,0,1-1.9-1.9l-.052-33.571a1.679,1.679,0,0,1,1.9-1.9l22.064-.035a1.68,1.68,0,0,1,1.9,1.9l.009,5.7a1.9,1.9,0,0,1-1.9,1.9l-12.668.02.007,4.381,11.876-.018a1.657,1.657,0,0,1,1.851,1.9l.008,5.331A1.848,1.848,0,0,1,438.473,501.132Z" transform="translate(-347.39 -477.555)" fill="#fff"></path>
      <path id="Path_5" data-name="Path 5" d="M507.474,503.8a10.615,10.615,0,0,1-2.1,6.76,11.178,11.178,0,0,1-5.3,3.782,22.592,22.592,0,0,1-7.256,1.093q-7.971.012-12.936-2.619a1.731,1.731,0,0,1-1.007-2.374l1.84-4.912q.736-1.848,2.427-1.112a19.636,19.636,0,0,0,7.5,1.571q5.331-.007,5.328-2.225a1.95,1.95,0,0,0-1.216-1.634,25.415,25.415,0,0,0-4.066-1.631q-2.06-.681-3.433-1.234a20,20,0,0,1-3.064-1.6,9.567,9.567,0,0,1-4.389-5.457,12.914,12.914,0,0,1-.693-4.354q-.017-10.926,14.393-10.948,6.967-.011,11.405,2.409a1.752,1.752,0,0,1,1.006,2.374l-1.788,4.648a1.735,1.735,0,0,1-2.426,1.112,21.9,21.9,0,0,0-6.969-1.1,9.752,9.752,0,0,0-3.06.374,1.476,1.476,0,0,0-1.054,1.532,2.062,2.062,0,0,0,1.191,1.688,24.41,24.41,0,0,0,4.04,1.788l2.324.867q.633.237,2.06.841a12.331,12.331,0,0,1,2.033,1.026l1.665,1.158a5.615,5.615,0,0,1,1.533,1.476q.477.739,1.032,1.741a7.056,7.056,0,0,1,.769,2.242A16.366,16.366,0,0,1,507.474,503.8Z" transform="translate(-380.018 -476.905)" fill="#fff"></path>
      <path id="Path_6" data-name="Path 6" d="M568.7,513.428l-.019-11.982-8.446.014.018,11.982a1.9,1.9,0,0,1-1.9,1.9l-7.706.012a1.68,1.68,0,0,1-1.9-1.9l-.052-33.571a1.679,1.679,0,0,1,1.9-1.9l7.706-.012a1.9,1.9,0,0,1,1.9,1.9l.018,11.454,8.446-.013-.018-11.454a1.9,1.9,0,0,1,1.9-1.9l7.707-.013a1.68,1.68,0,0,1,1.9,1.9l.052,33.57a1.679,1.679,0,0,1-1.9,1.9l-7.706.013A1.9,1.9,0,0,1,568.7,513.428Z" transform="translate(-416.001 -477.438)" fill="#fff"></path>
      <path id="Path_7" data-name="Path 7" d="M278.147,592.116l-1.667,0a.545.545,0,0,1-.546-.544l-.034-21.417q0-.545.512-.546l6.22-.009q4.873-.008,7.137,1.832t2.27,5.976q.007,4.136-2.251,5.966t-7.131,1.839l-3.976.006.01,6.349A.545.545,0,0,1,278.147,592.116Zm.53-9.427,3.976-.006q3.494-.005,5.032-1.21t1.533-4.058q0-2.886-1.545-4.085t-5.036-1.195l-3.976.006Z" transform="translate(-275.724 -524.572)" fill="#fff"></path>
      <path id="Path_8" data-name="Path 8" d="M320.927,569.542l6.54-.011q4.681-.007,6.9,1.769a6.6,6.6,0,0,1,2.221,5.463q.01,6.149-6.53,6.932l6.553,7.652a.469.469,0,0,1,.113.462c-.053.144-.2.215-.428.216l-1.927,0a1,1,0,0,1-.79-.427l-6.5-7.641-3.911.006.012,7.535a.545.545,0,0,1-.544.546l-1.667,0a.546.546,0,0,1-.546-.544l-.033-21.449Q320.381,569.543,320.927,569.542Zm2.23,11.89,4.2-.006q3.527-.006,4.984-1.114a5.069,5.069,0,0,0-.043-7.149q-1.492-1.1-4.891-1.1l-4.264.007Z" transform="translate(-298.597 -524.535)" fill="#fff"></path>
      <path id="Path_9" data-name="Path 9" d="M364.548,571.757a10.065,10.065,0,0,1,14.363-.022q2.506,3.009,2.514,8.588t-2.487,8.58a10.1,10.1,0,0,1-14.364.022q-2.505-2.994-2.514-8.573T364.548,571.757Zm2.06,15.338a6.858,6.858,0,0,0,10.292-.016q1.711-2.327,1.7-6.751t-1.726-6.762a6.828,6.828,0,0,0-10.292.016q-1.712,2.343-1.7,6.767T366.608,587.095Z" transform="translate(-320.03 -524.125)" fill="#fff"></path>
      <path id="Path_10" data-name="Path 10" d="M418.9,591.9l-5.547.008a.545.545,0,0,1-.546-.544l-.034-21.448a.514.514,0,0,1,.513-.514l5.515-.008q5.579-.009,8.42,2.488t2.851,8.363q.01,6.38-2.791,9.013T418.9,591.9Zm-.128-19.942-3.238.005.027,17.376,3.3,0a13.745,13.745,0,0,0,3.558-.406,6.523,6.523,0,0,0,2.611-1.4,5.86,5.86,0,0,0,1.678-2.792,15.692,15.692,0,0,0,.538-4.49q-.007-4.647-2.11-6.473T418.777,571.955Z" transform="translate(-346.109 -524.463)" fill="#fff"></path>
      <path id="Path_11" data-name="Path 11" d="M473.655,590q-2.112,2.185-6.345,2.19t-6.367-2.17a8.43,8.43,0,0,1-2.142-6.152l-.022-14.042c0-.341.181-.513.545-.514l1.667,0q.544,0,.546.512l.022,13.851q.009,5.995,5.748,5.986t5.73-6l-.022-13.85a.513.513,0,0,1,.513-.514l1.7,0a.513.513,0,0,1,.513.512l.022,14.042A8.473,8.473,0,0,1,473.655,590Z" transform="translate(-369.764 -524.408)" fill="#fff"></path>
      <path id="Path_12" data-name="Path 12" d="M514.949,589.154a9.129,9.129,0,0,0,4.455-1.129q.448-.161.674.352l.612,1.378q.032.353-.416.578a10.744,10.744,0,0,1-5.705,1.356,9.454,9.454,0,0,1-7.491-2.986q-2.65-2.993-2.659-8.572t2.6-8.6a9.216,9.216,0,0,1,7.353-3.025,11.026,11.026,0,0,1,5.645,1.273q.513.256.386.609l-.543,1.347a.444.444,0,0,1-.7.289,9.442,9.442,0,0,0-4.394-.987,6.881,6.881,0,0,0-5.623,2.317q-1.9,2.311-1.9,6.768Q507.254,589.166,514.949,589.154Z" transform="translate(-393.233 -524.009)" fill="#fff"></path>
      <path id="Path_13" data-name="Path 13" d="M543.918,571.2l0-1.507a.454.454,0,0,1,.513-.514l14.587-.023q.545,0,.546.512l0,1.507a.545.545,0,0,1-.544.546l-5.9.009.031,19.4a.545.545,0,0,1-.544.546l-1.667,0a.545.545,0,0,1-.546-.545l-.031-19.4-5.9.009A.546.546,0,0,1,543.918,571.2Z" transform="translate(-413.544 -524.341)" fill="#fff"></path>
      <path id="Path_14" data-name="Path 14" d="M597.669,585.5a5.083,5.083,0,0,1-2.221,4.461,10.681,10.681,0,0,1-6.137,1.549,15.324,15.324,0,0,1-6.318-1.016q-.514-.224-.418-.609l.511-1.444q.127-.545.641-.321a14.638,14.638,0,0,0,5.484.921,8.015,8.015,0,0,0,4.182-.936,2.947,2.947,0,0,0,1.519-2.664,3.77,3.77,0,0,0-.162-1.121,2.354,2.354,0,0,0-.643-.976q-.482-.464-.8-.736a5.4,5.4,0,0,0-1.2-.659l-1.2-.529-1.434-.633-1.4-.618-1.316-.581a5.052,5.052,0,0,1-1.223-.708l-.967-.828a3.411,3.411,0,0,1-.836-1.011,6.264,6.264,0,0,1-.467-1.249,6.04,6.04,0,0,1-.195-1.555,5.2,5.2,0,0,1,1.9-4.315q1.906-1.526,5.817-1.532a14.376,14.376,0,0,1,5.547.92q.513.192.386.609l-.511,1.411q-.16.482-.673.29a12.384,12.384,0,0,0-4.554-.731,7.208,7.208,0,0,0-3.927.836,3.057,3.057,0,0,0-1.1,3.348,4.527,4.527,0,0,0,.286.7,2.325,2.325,0,0,0,.578.643l.706.59a3.515,3.515,0,0,0,.809.469l.8.353c.176.079.483.216.92.409l.907.4,1.645.731q.447.2,1.495.736a6.818,6.818,0,0,1,1.5.966,14.535,14.535,0,0,1,1.033,1.11,3.9,3.9,0,0,1,.809,1.49A6.835,6.835,0,0,1,597.669,585.5Z" transform="translate(-433.415 -523.949)" fill="#fff"></path>
    </g>
  </g>
  <g id="Group_38" data-name="Group 38" transform="translate(-685.308 -452.856)">
    <path id="Path_75" data-name="Path 75" d="M922.2,461.023c-5.539-5.425-12.343-7.32-19.408-8.167-.265.528.082.765.245,1.019a23.214,23.214,0,0,1,3.1,8.2c.946,4.921,2.085,9.724,4.583,13.934a11.7,11.7,0,0,0,9.9,6.09,44.982,44.982,0,0,0-5.922-14.853c.047-.308.049-.644.376-.768.188.09.442.118.555.279,3.5,5.034,6.74,10.255,8.792,16.379a11.162,11.162,0,0,0,1.555,3.8,69.591,69.591,0,0,1,1.114-10.541C927.9,470.152,926.178,464.922,922.2,461.023Z" transform="translate(-17.858)" fill="url(#linear-gradient)"></path>
    <path id="Path_76" data-name="Path 76" d="M958.275,475.924c4.166-3.127,8.865-3.791,13.645-3.734.13.375-.122.5-.252.657a15.6,15.6,0,0,0-2.785,5.191,28.6,28.6,0,0,1-4.277,8.878,7.857,7.857,0,0,1-7.128,3.186,30.216,30.216,0,0,1,5.25-9.373c0-.209.024-.433-.183-.545-.134.043-.305.039-.394.138a43.345,43.345,0,0,0-7.3,10.137,7.492,7.492,0,0,1-1.37,2.392,46.763,46.763,0,0,0,.185-7.119A11.681,11.681,0,0,1,958.275,475.924Z" transform="translate(-43.031 -9.58)" fill="url(#linear-gradient-2)"></path>
    <g id="Group_38-2" data-name="Group 38" transform="translate(866.66 476.42)">
      <path id="Path_77" data-name="Path 77" d="M913.889,514.3c5.2-4.489,9.651-8.73,13.392-12.524a7.3,7.3,0,0,1,7.109-1.952,79.064,79.064,0,0,0,13.381,2.36,3.683,3.683,0,0,1,2.94,5.2,182.661,182.661,0,0,1-13.752,25.139,1.2,1.2,0,0,1-1.692.339,239.818,239.818,0,0,1-21.4-16.635A1.289,1.289,0,0,1,913.889,514.3Zm-10.075,0c-5.2-4.489-9.651-8.73-13.392-12.524a7.3,7.3,0,0,0-7.109-1.952,79.063,79.063,0,0,1-13.381,2.36,3.683,3.683,0,0,0-2.94,5.2,182.661,182.661,0,0,0,13.752,25.139,1.2,1.2,0,0,0,1.692.339,239.836,239.836,0,0,0,21.4-16.635A1.289,1.289,0,0,0,903.814,514.3Zm7.832,47.681c3.9-3.044,11.614-9.906,21.761-23.062a1.279,1.279,0,0,0-.26-1.8,255.988,255.988,0,0,1-23.536-19.136,1.154,1.154,0,0,0-1.579,0A255.989,255.989,0,0,1,884.5,537.113a1.279,1.279,0,0,0-.26,1.8C894.384,552.073,902.1,558.935,906,561.979A4.56,4.56,0,0,0,911.646,561.979Z" transform="translate(-866.66 -499.573)" fill="url(#linear-gradient-3)"></path>
    </g>
  </g>
</svg>
