<?xml version="1.0" encoding="UTF-8"?>
<svg xmlns="http://www.w3.org/2000/svg" width="119.226" height="119.205" viewBox="0 0 119.226 119.205">
  <g id="noun-carrot-4619256" transform="translate(0)">
    <path id="Path_64" data-name="Path 64" d="M189.356,19.868c.149-2.851-2.012-5.4-5.366-6.652,1.621-3.037,1.659-5.944,0-7.621s-4.583-1.677-7.639,0c-1.267-3.336-3.82-5.59-6.633-5.385h0a6.84,6.84,0,0,0-5.888,4.938,6.057,6.057,0,0,0-4.006-1.267,6.373,6.373,0,0,0-4.49,2.218,11.788,11.788,0,0,0-2.7,6.353,5.065,5.065,0,0,0-1.863-.261c-3.5.149-6.279,3.726-6.745,8.795a17.733,17.733,0,0,0,0,3.336c.242,2.422.6,10.378-3.484,16.341a19.415,19.415,0,0,0-22.6,3.465c-9.558,8.925-36.166,49.767-47.158,68.25a4.705,4.705,0,0,0,3.969,7.025,4.629,4.629,0,0,0,2.385-.67c18.484-10.993,59.326-37.582,68.214-47.122a19.394,19.394,0,0,0,3.5-22.657c5.981-4.117,13.937-3.726,16.359-3.484h0a16,16,0,0,0,3.279,0c5.049-.466,8.682-3.223,8.85-6.726h0a5.475,5.475,0,0,0-.279-1.863,11.582,11.582,0,0,0,6.353-2.7,6.424,6.424,0,0,0,2.218-4.472,6.164,6.164,0,0,0-1.286-4.043,6.8,6.8,0,0,0,5.013-5.8ZM142.775,69.1A119.236,119.236,0,0,1,128.446,80.7a30.075,30.075,0,0,0-6.278-7.881,1.8,1.8,0,0,0-2.329,2.757,27.024,27.024,0,0,1,5.59,7.193c-10.956,7.826-24.857,16.993-36.539,24.39h0a16.745,16.745,0,0,0-3.037-3.727,1.863,1.863,0,1,0-2.311,2.739,13.4,13.4,0,0,1,2.329,2.981c-3.931,2.46-7.527,4.658-10.583,6.521a1.067,1.067,0,0,1-1.453-1.453c3.354-5.59,8.012-13.043,13.136-21.073h0a11.734,11.734,0,0,1,2.311,2.832,1.822,1.822,0,0,0,3.186-1.77A15.774,15.774,0,0,0,89,90.076c2.888-4.434,5.887-8.944,8.85-13.34a15.508,15.508,0,0,1,5.59,5.235,1.862,1.862,0,0,0,1.584.913,1.672,1.672,0,0,0,.875-.242,1.864,1.864,0,0,0,.616-2.366,18.893,18.893,0,0,0-6.6-6.521c6.335-9.316,12.372-17.645,16.769-22.917a17.551,17.551,0,0,1,7.248,6.2,1.862,1.862,0,0,0,1.565.913,1.7,1.7,0,0,0,.894-.242,1.863,1.863,0,0,0,.69-2.46,19.915,19.915,0,0,0-7.937-7.193c.466-.5.913-.969,1.323-1.342h0a15.8,15.8,0,1,1,22.3,22.377Zm37.508-46.3a1.84,1.84,0,0,0-.8,3.447c1.659.876,2.609,2.124,2.534,3.316a3.053,3.053,0,0,1-1.043,1.994,9.074,9.074,0,0,1-6.335,1.863h-.857a1.752,1.752,0,0,0-1.863,1.118,1.862,1.862,0,0,0,.559,2.087,2.793,2.793,0,0,1,1.229,2.105c0,1.36-2.161,2.963-5.59,3.279a13.4,13.4,0,0,1-2.609,0c-2.72-.261-11.664-.69-18.632,4.062h0a17.473,17.473,0,0,0-3.316-3.317c4.583-6.726,4.4-15.148,4.062-18.632a15.221,15.221,0,0,1,0-2.627c.317-3.391,1.863-5.478,3.316-5.59a2.848,2.848,0,0,1,2.105,1.229,1.863,1.863,0,0,0,3.2-1.3v-.838a9.114,9.114,0,0,1,1.863-6.353A2.983,2.983,0,0,1,160.1,7.571c1.174,0,2.422.894,3.316,2.553a1.805,1.805,0,0,0,3.391-.8c.111-2.944,1.491-5.385,3.112-5.459,1.565,0,3.093,2.143,3.5,4.919h0a1.847,1.847,0,0,0,2.963,1.174c2.553-1.994,4.64-2.18,5.106-1.714s.261,2.534-1.733,5.068h0a1.852,1.852,0,0,0,1.155,2.981c2.795.41,5.012,2.012,4.938,3.578s-2.628,2.832-5.571,2.925Z" transform="translate(-70.137 -0.198)" fill="#fff"></path>
  </g>
</svg>
