<?xml version="1.0" encoding="UTF-8"?>
<svg xmlns="http://www.w3.org/2000/svg" width="28.587" height="28.582" viewBox="0 0 28.587 28.582">
  <g id="noun-carrot-4619256" transform="translate(-70.137 -1.198)">
    <path id="Path_64" data-name="Path 64" d="M98.722,4.914a1.723,1.723,0,0,0-1.287-1.595,1.542,1.542,0,0,0,0-1.827,1.521,1.521,0,0,0-1.832,0A1.724,1.724,0,0,0,94.014.2h0A1.64,1.64,0,0,0,92.6,1.385a1.452,1.452,0,0,0-.96-.3,1.528,1.528,0,0,0-1.077.532,2.826,2.826,0,0,0-.648,1.523,1.214,1.214,0,0,0-.447-.063c-.84.036-1.506.894-1.617,2.109a4.251,4.251,0,0,0,0,.8A6.318,6.318,0,0,1,87.018,9.9a4.655,4.655,0,0,0-5.419.831c-2.292,2.14-8.672,11.933-11.307,16.364a1.128,1.128,0,0,0,.952,1.684,1.11,1.11,0,0,0,.572-.161c4.432-2.636,14.225-9.011,16.356-11.3a4.65,4.65,0,0,0,.84-5.432,6.272,6.272,0,0,1,3.922-.835h0a3.836,3.836,0,0,0,.786,0c1.211-.112,2.082-.773,2.122-1.613h0a1.313,1.313,0,0,0-.067-.447A2.777,2.777,0,0,0,97.3,8.345a1.54,1.54,0,0,0,.532-1.072,1.478,1.478,0,0,0-.308-.969,1.63,1.63,0,0,0,1.2-1.39Zm-11.169,11.8A28.59,28.59,0,0,1,84.118,19.5a7.211,7.211,0,0,0-1.505-1.89.433.433,0,0,0-.558.661A6.48,6.48,0,0,1,83.395,20c-2.627,1.876-5.96,4.074-8.761,5.848h0a4.015,4.015,0,0,0-.728-.894.447.447,0,1,0-.554.657,3.213,3.213,0,0,1,.558.715c-.943.59-1.8,1.117-2.538,1.564a.256.256,0,0,1-.348-.348c.8-1.34,1.921-3.127,3.15-5.053h0a2.813,2.813,0,0,1,.554.679.437.437,0,0,0,.764-.424,3.782,3.782,0,0,0-.831-.992c.692-1.063,1.412-2.144,2.122-3.2a3.718,3.718,0,0,1,1.34,1.255.446.446,0,0,0,.38.219.4.4,0,0,0,.21-.058.447.447,0,0,0,.148-.567,4.53,4.53,0,0,0-1.582-1.564C78.8,15.6,80.245,13.6,81.3,12.34a4.208,4.208,0,0,1,1.738,1.488.447.447,0,0,0,.375.219.407.407,0,0,0,.214-.058.447.447,0,0,0,.165-.59,4.775,4.775,0,0,0-1.9-1.725c.112-.121.219-.232.317-.322h0a3.788,3.788,0,1,1,5.348,5.365Zm8.993-11.1a.441.441,0,0,0-.192.826c.4.21.625.509.607.8a.732.732,0,0,1-.25.478,2.176,2.176,0,0,1-1.519.447h-.205a.42.42,0,0,0-.447.268.446.446,0,0,0,.134.5.67.67,0,0,1,.295.5c0,.326-.518.71-1.34.786a3.213,3.213,0,0,1-.625,0,7.168,7.168,0,0,0-4.468.974h0a4.19,4.19,0,0,0-.8-.8,7.064,7.064,0,0,0,.974-4.468,3.65,3.65,0,0,1,0-.63c.076-.813.447-1.314.8-1.34a.683.683,0,0,1,.5.295.447.447,0,0,0,.768-.313v-.2a2.185,2.185,0,0,1,.447-1.523.715.715,0,0,1,.478-.255.993.993,0,0,1,.8.612.433.433,0,0,0,.813-.192c.027-.706.357-1.291.746-1.309.375,0,.742.514.84,1.18h0a.443.443,0,0,0,.71.281c.612-.478,1.112-.523,1.224-.411s.063.607-.415,1.215h0a.444.444,0,0,0,.277.715c.67.1,1.2.482,1.184.858s-.63.679-1.336.7Z" transform="translate(0 1)" fill="#fe7900"></path>
  </g>
</svg>
