<?xml version="1.0" encoding="UTF-8"?>
<svg xmlns="http://www.w3.org/2000/svg" width="102.286" height="109.574" viewBox="0 0 102.286 109.574">
  <g id="noun-agronomy-4271047" transform="translate(-104.987 -17.528)">
    <path id="Path_103" data-name="Path 103" d="M108.643,72.317A47.538,47.538,0,0,1,155.4,24.846l3.105,3.105a1.827,1.827,0,0,0,1.734.481l14.612-3.653a1.827,1.827,0,0,0,0-3.544l-14.612-3.653a1.827,1.827,0,0,0-1.734.48L155.355,21.2a51.13,51.13,0,0,0-31.37,90.9l2.3-2.838h0a47.325,47.325,0,0,1-17.64-36.937Zm51.7-50.945L166.866,23l-6.521,1.631L158.714,23Z" fill="#fff"></path>
    <path id="Path_104" data-name="Path 104" d="M213.88,472.223c1.23.822,2.5,1.6,3.792,2.305l1.757-3.2c-1.193-.656-2.374-1.376-3.514-2.139Z" transform="translate(-86.162 -357.379)" fill="#fff"></path>
    <path id="Path_105" data-name="Path 105" d="M324.944,129.372A51.025,51.025,0,0,0,306,89.635l-2.3,2.842a47.488,47.488,0,0,1-29.167,84.363l-3.105-3.105a1.827,1.827,0,0,0-1.734-.481l-14.612,3.653a1.827,1.827,0,0,0,0,3.544l14.612,3.653a1.827,1.827,0,0,0,1.734-.48l3.138-3.138a51.19,51.19,0,0,0,50.378-51.117Zm-55.356,50.945-6.52-1.631,6.521-1.631,1.631,1.631Z" transform="translate(-117.671 -57.055)" fill="#fff"></path>
    <path id="Path_106" data-name="Path 106" d="M465.087,67.535c-1.23-.822-2.5-1.6-3.792-2.305l-1.757,3.2c1.193.656,2.374,1.376,3.514,2.139Z" transform="translate(-280.541 -37.745)" fill="#fff"></path>
    <path id="Path_107" data-name="Path 107" d="M292.105,145.938H284.8a12.733,12.733,0,0,0-9.132,3.854v-11.16h5.479a12.8,12.8,0,0,0,12.785-12.785,1.826,1.826,0,0,0-1.826-1.826H284.8a12.733,12.733,0,0,0-9.132,3.854V112.805c4.219-1.151,7.306-6.247,7.306-12.529,0-6.941-7.78-12.255-8.11-12.475a1.826,1.826,0,0,0-2.045,0c-.329.219-8.11,5.534-8.11,12.475,0,6.284,3.087,11.379,7.306,12.529v4.11a12.733,12.733,0,0,0-9.132-3.854h-7.306a1.827,1.827,0,0,0-1.826,1.826,12.8,12.8,0,0,0,12.785,12.785h5.479v11.159a12.733,12.733,0,0,0-9.132-3.854h-7.306a1.827,1.827,0,0,0-1.826,1.826,12.8,12.8,0,0,0,12.785,12.785h5.479v18.265h3.653V160.55h5.479a12.8,12.8,0,0,0,12.785-12.785,1.826,1.826,0,0,0-1.826-1.826ZM284.8,127.673h5.3a9.149,9.149,0,0,1-8.95,7.306h-5.3a9.149,9.149,0,0,1,8.95-7.306Zm-18.265-3.653a9.149,9.149,0,0,1-8.95-7.306h5.3a9.149,9.149,0,0,1,8.95,7.306Zm0,21.918a9.149,9.149,0,0,1-8.95-7.306h5.3a9.149,9.149,0,0,1,8.95,7.306Zm7.306-36.53c-2.977,0-5.479-4.183-5.479-9.132,0-3.762,3.653-7.2,5.479-8.676,1.826,1.479,5.479,4.914,5.479,8.676C279.32,105.225,276.818,109.408,273.841,109.408Zm7.306,47.489h-5.3a9.149,9.149,0,0,1,8.95-7.306h5.3a9.149,9.149,0,0,1-8.95,7.306Z" transform="translate(-117.709 -55.356)" fill="#fff"></path>
  </g>
</svg>
