<?xml version="1.0" encoding="UTF-8"?>
<svg xmlns="http://www.w3.org/2000/svg" width="128.521" height="128.602" viewBox="0 0 128.521 128.602">
  <g id="noun-agriculture-2171596" transform="translate(-125.494 -55.416)">
    <path id="Path_130" data-name="Path 130" d="M127.589,183.518H251.9a1.593,1.593,0,0,0,1.594-1.594,20.36,20.36,0,0,0-14.007-19.267,23.871,23.871,0,0,0-38.885-3,20.158,20.158,0,0,0-9.257-3.066l0-8.35,17.179-11.2a19.934,19.934,0,0,0,15.814,7.648,21.108,21.108,0,0,0,11.547-3.455c12.8-8.358,17.392-33.052,17.582-34.1a1.6,1.6,0,0,0-1.223-1.84c-1.057-.233-25.979-5.65-38.286,2.381a20.929,20.929,0,0,0-9.05,12.893,19.6,19.6,0,0,0,1.853,13.817L191.348,144.44l.014-34.586c10.19-.844,18.238-9.665,18.241-20.407,0-15.113-17.953-32.258-18.718-32.981a1.6,1.6,0,0,0-2.209.017c-.763.747-18.714,18.447-18.716,32.976a20.69,20.69,0,0,0,5.782,14.463,19.38,19.38,0,0,0,12.433,5.936l-.014,34.578L172.75,134.385a19.6,19.6,0,0,0,1.853-13.817,20.931,20.931,0,0,0-9.049-12.893c-12.307-8.03-37.23-2.615-38.286-2.381a1.6,1.6,0,0,0-1.223,1.84c.19,1.048,4.78,25.744,17.582,34.1h0a21.107,21.107,0,0,0,11.547,3.455,19.939,19.939,0,0,0,15.814-7.648l17.17,11.2,0,8.341a20,20,0,0,0-4.89.977,20.265,20.265,0,0,0-32.966,4.516,19.958,19.958,0,0,0-4.034-.42,20.294,20.294,0,0,0-20.271,20.269,1.593,1.593,0,0,0,1.594,1.594Zm106.554-44.951c-7.627,4.98-17.587,3.454-22.965-3.253l4.434-2.891,20.309,4.811a18.125,18.125,0,0,1-1.779,1.333Zm11.075-15.31-11.408-2.7,15.678-10.224a87.946,87.946,0,0,1-4.27,12.927Zm-6.684,11.32L219.3,130.019l10.831-7.064,13.734,3.254A39.953,39.953,0,0,1,238.533,134.577Zm-6.459-16.7,2.082-11.37a95.039,95.039,0,0,1,13.519,1.2Zm-3.679,2.4-10.827,7.061,3.546-19.361a41.39,41.39,0,0,1,9.8-1.436Zm-20.378,1a17.748,17.748,0,0,1,7.685-10.932,16.713,16.713,0,0,1,1.935-1.074l-3.75,20.466-4.456,2.906a16.461,16.461,0,0,1-1.415-11.366Zm-36.519,0a16.461,16.461,0,0,1-1.415,11.366l-4.456-2.906-3.751-20.472a16.863,16.863,0,0,1,1.938,1.079A17.743,17.743,0,0,1,171.5,121.28Zm-30.514,13.3a39.981,39.981,0,0,1-5.326-8.368l13.734-3.254,10.83,7.064ZM130.03,110.329l15.679,10.225-11.408,2.7a87.884,87.884,0,0,1-4.271-12.928Zm15.329-3.825,2.083,11.376-15.6-10.175a94.811,94.811,0,0,1,13.518-1.2Zm5.764,13.776-2.515-13.725a41.322,41.322,0,0,1,9.8,1.433l3.544,19.351Zm-5.748,18.287h0a17.82,17.82,0,0,1-1.781-1.335l20.312-4.811,4.433,2.891c-5.376,6.7-15.335,8.234-22.964,3.254Zm32.839-63.709,9.975,9.476-.006,12.72L174.124,83.7a40.818,40.818,0,0,1,4.09-8.842Zm27.275,8.794-14.118,13.41.006-12.721,10.087-9.583a39.443,39.443,0,0,1,4.026,8.893Zm-17.3-3.711-8.245-7.832A93.477,93.477,0,0,1,188.2,61.629Zm3.177,26.725,0-5.207L206.281,87.3a17.658,17.658,0,0,1,.139,2.152c0,8.981-6.622,16.382-15.052,17.219Zm8.366-34.658-8.355,7.938.008-18.4a86.724,86.724,0,0,1,8.348,10.465Zm-21.694,29.7a17.512,17.512,0,0,1-4.888-12.25,16.635,16.635,0,0,1,.146-2.147l14.886,14.136,0,5.222a16.236,16.236,0,0,1-10.141-4.962Zm-31.772,63.134a17.133,17.133,0,0,1,4.5.623,1.6,1.6,0,0,0,1.884-.909,17.079,17.079,0,0,1,28.9-4.109,1.592,1.592,0,0,0,1.825.467,16.974,16.974,0,0,1,16.594,2.19,1.612,1.612,0,0,0,1.194.3,1.6,1.6,0,0,0,1.052-.639,20.689,20.689,0,0,1,34.812,2.013,1.6,1.6,0,0,0,.945.748,17.163,17.163,0,0,1,12.252,14.8H129.261a17.109,17.109,0,0,1,17.008-15.488Z" transform="translate(0 0)" fill="#4eaa34" stroke="#4eaa34" stroke-width="1"></path>
  </g>
</svg>
