<?xml version="1.0" encoding="UTF-8"?>
<svg xmlns="http://www.w3.org/2000/svg" width="105.717" height="105.717" viewBox="0 0 105.717 105.717">
  <g id="noun-cold-3037140" transform="translate(-83.999 -14)">
    <path id="Path_119" data-name="Path 119" d="M171.243,14H102.472A18.57,18.57,0,0,0,84,32.473v68.771a18.5,18.5,0,0,0,18.473,18.473h68.771a18.5,18.5,0,0,0,18.473-18.473V32.473A18.57,18.57,0,0,0,171.243,14Zm13.243,87.244a13.275,13.275,0,0,1-13.243,13.243H102.472a13.275,13.275,0,0,1-13.243-13.243V32.473A13.275,13.275,0,0,1,102.472,19.23h68.771a13.275,13.275,0,0,1,13.243,13.243Z" fill="#fff"></path>
    <path id="Path_120" data-name="Path 120" d="M251.916,112.1a2.713,2.713,0,0,0-3.561-1l-6.677,3.783.779-5.9a2.63,2.63,0,0,0-5.23-.556l-1.224,9.9-13.465,7.789v-15.58l8.012-6.009a2.626,2.626,0,0,0-3.116-4.229l-4.9,3.561V96.192a2.671,2.671,0,1,0-5.342,0v7.679l-4.785-3.561a2.626,2.626,0,1,0-3.116,4.229l8.012,6.009v15.468l-13.465-7.789-1.224-9.9a2.618,2.618,0,0,0-2.893-2.337,2.7,2.7,0,0,0-2.337,2.893l.779,5.9-6.677-3.783a2.5,2.5,0,0,0-3.561,1,2.558,2.558,0,0,0,1,3.561l6.677,3.783-5.564,2.337a2.59,2.59,0,0,0,1,5.007,3.234,3.234,0,0,0,1-.223l9.125-3.9,13.465,7.789-13.465,7.789-9.125-3.9a2.645,2.645,0,0,0-2,4.9l5.564,2.337-6.677,3.783a2.713,2.713,0,0,0-1,3.561,2.5,2.5,0,0,0,2.337,1.335,2.959,2.959,0,0,0,1.335-.334l6.677-3.783-.779,5.9a2.557,2.557,0,0,0,2.337,2.893h.334a2.742,2.742,0,0,0,2.671-2.337l1.224-9.9L217.53,134.8v15.8l-8.012,6.009a2.626,2.626,0,0,0,3.116,4.229l4.785-3.561v7.679a2.671,2.671,0,1,0,5.342,0v-7.679l4.785,3.561a2.658,2.658,0,0,0,1.558.557,2.741,2.741,0,0,0,2.115-1,2.563,2.563,0,0,0-.557-3.672l-8.122-6.121V135.14L236,142.929l1.224,9.9a2.658,2.658,0,0,0,2.671,2.337h.334a2.7,2.7,0,0,0,2.337-2.893l-.779-5.9,6.677,3.783a2.959,2.959,0,0,0,1.335.334,2.745,2.745,0,0,0,2.337-1.335,2.5,2.5,0,0,0-1-3.561l-6.677-3.783,5.564-2.337a2.645,2.645,0,0,0-2-4.9l-9.461,3.783L225.1,130.577l13.465-7.789,9.125,3.9a3.257,3.257,0,0,0,1,.223,2.669,2.669,0,0,0,2.448-1.558,2.573,2.573,0,0,0-1.447-3.45l-5.564-2.337,6.677-3.783a2.6,2.6,0,0,0,1.113-3.673Z" transform="translate(-83.009 -63.719)" fill="#fff"></path>
  </g>
</svg>
