<?xml version="1.0" encoding="UTF-8"?>
<svg xmlns="http://www.w3.org/2000/svg" width="146.929" height="128.489" viewBox="0 0 146.929 128.489">
  <g id="noun-package-4385272" transform="translate(-115.662 -75.029)">
    <path id="Path_136" data-name="Path 136" d="M261.827,107.734,251.822,82.212a11.208,11.208,0,0,0-9.8-6.683H136.1a11.211,11.211,0,0,0-9.8,6.683L116.3,107.734a1.926,1.926,0,0,0-.136.748v86.713a7.83,7.83,0,0,0,7.823,7.823H254.132a7.839,7.839,0,0,0,7.834-7.823V108.475a2.3,2.3,0,0,0-.141-.742ZM248.018,83.7l8.9,22.729H202.43V79.621h39.587a7.19,7.19,0,0,1,6,4.081Zm-49.682-4.081v69.893l-8.058-6.012a2.066,2.066,0,0,0-2.455,0l-8.058,6.012V79.621Zm-68.231,4.092a7.143,7.143,0,0,1,5.99-4.092h39.587V106.43H121.2ZM254.132,198.926H123.979a3.736,3.736,0,0,1-3.731-3.731V110.521h55.431v43.063a2.042,2.042,0,0,0,3.269,1.642l10.109-7.535,10.115,7.535a2.022,2.022,0,0,0,1.217.4,2.022,2.022,0,0,0,2.046-2.046V110.521h55.443v84.674a3.749,3.749,0,0,1-3.742,3.731Z" fill="#4eaa34" stroke="#4eaa34" stroke-width="1"></path>
    <path id="Path_137" data-name="Path 137" d="M205.1,352.47H171.154a3.591,3.591,0,0,0-3.59,3.579V377.2a3.591,3.591,0,0,0,3.59,3.579H205.1a3.591,3.591,0,0,0,3.59-3.579V356.049A3.59,3.59,0,0,0,205.1,352.47Zm-.5,24.217H171.656V356.561h32.937Z" transform="translate(-35.377 -190.602)" fill="#4eaa34" stroke="#4eaa34" stroke-width="1"></path>
    <path id="Path_138" data-name="Path 138" d="M191.33,378.16h26.308v4.092H191.33Z" transform="translate(-51.734 -208.283)" fill="#4eaa34" stroke="#4eaa34" stroke-width="1"></path>
    <path id="Path_139" data-name="Path 139" d="M191.33,404.44h14.6v4.092h-14.6Z" transform="translate(-51.734 -226.37)" fill="#4eaa34" stroke="#4eaa34" stroke-width="1"></path>
  </g>
</svg>
