<?xml version="1.0" encoding="UTF-8"?>
<svg xmlns="http://www.w3.org/2000/svg" width="97.808" height="109.574" viewBox="0 0 97.808 109.574">
  <g id="noun-agriculture-3173736" transform="translate(-131.251 -43.619)">
    <path id="Path_121" data-name="Path 121" d="M227.1,90.6H214.211l.2-4.127.626-13.693a8.41,8.41,0,0,0-2.66-6.143,12.992,12.992,0,0,0,6.416-3.286c4.362-4.362,3.775-11.737,3.756-12.03a1.956,1.956,0,0,0-1.781-1.8c-.313,0-7.668-.606-12.03,3.756a11.748,11.748,0,0,0-2.562,3.912,10.912,10.912,0,0,0-8.039-2.543,1.956,1.956,0,0,0-1.781,1.78,10.9,10.9,0,0,0,2.543,8.04,7.829,7.829,0,0,0,2.484,1.643,7.665,7.665,0,0,0-.7.587,8.273,8.273,0,0,0-2.484,6.064l.215,4.93.587,12.754H186.845l.626-13.889a7.951,7.951,0,0,0-3.208-6.495,7.814,7.814,0,0,0,2.484-1.644,10.915,10.915,0,0,0,2.543-8.039,1.956,1.956,0,0,0-1.781-1.78,10.915,10.915,0,0,0-8.039,2.66,11.748,11.748,0,0,0-2.562-3.912c-4.362-4.362-11.737-3.8-12.03-3.756a1.957,1.957,0,0,0-1.781,1.781c0,.313-.606,7.668,3.756,12.03a12.984,12.984,0,0,0,6.436,3.305,8.527,8.527,0,0,0-2.68,6.22l.626,13.674H159.068V89.364l.782-16.373.235-5.2a8.686,8.686,0,0,0-2.445-6.1,8.394,8.394,0,0,0-.861-.743,7.827,7.827,0,0,0,2.6-1.741,11.482,11.482,0,0,0,2.524-8.255,1.956,1.956,0,0,0-1.781-1.78,10.933,10.933,0,0,0-8.059,2.621,12.151,12.151,0,0,0-2.524-4.225c-4.382-4.539-11.737-3.912-12.07-3.912a1.956,1.956,0,0,0-1.78,1.78c0,.313-.606,7.825,3.736,12.382h0A12.936,12.936,0,0,0,146,61.254a8.843,8.843,0,0,0-2.8,6.475L144.24,90.6H133.207a1.956,1.956,0,0,0-1.956,1.956v50.86a1.956,1.956,0,0,0,1.956,1.956h5.868v5.868a1.956,1.956,0,0,0,1.956,1.956h13.693a1.956,1.956,0,0,0,1.956-1.956v-5.868h46.948v5.868a1.956,1.956,0,0,0,1.956,1.956h13.693a1.956,1.956,0,0,0,1.956-1.956v-5.868H227.1a1.956,1.956,0,0,0,1.956-1.956V92.553A1.956,1.956,0,0,0,227.1,90.6Zm-72.378,50.86h-7.1l12.03-7.825h40.981l12.03,7.825Zm57.96-46.948-9.057,5.868H156.68l-9.038-5.868Zm-27.093,29.342,9.038,5.868H165.678l9.038-5.868Zm-42.6-9.781H170.55l6.025,3.912-3.013,1.956H142.988Zm-3.912,5.868h-3.912V114.07h3.912Zm43.5-5.868-2.426,1.584-2.426-1.584ZM171.7,110.158l-9.038-5.868h34.956l-9.038,5.868Zm12.03,7.825,6.025-3.912h27.563v5.868H186.748Zm37.5-3.912h3.912v5.868h-3.912Zm0-3.912v-5.868h3.912v5.868Zm-3.912,0H195.8l9.038-5.868h12.48Zm-6.495-9.781,6.495-4.225v4.225Zm-61.345,0h-6.495V96.152Zm6.025,3.912,9,5.868H142.986v-5.868Zm-16.432,5.868h-3.912v-5.868h3.912Zm-3.912,13.693h3.912v5.868h-3.912Zm7.825,0h24.549l-9.038,5.868H142.985Zm9.506,9.781-9.506,6.181v-6.181Zm55.32,0h9.507v6.181Zm-6.025-3.912-9.038-5.868h24.569v5.868Zm19.445-5.868h3.912v5.868h-3.912Zm3.912-29.342v5.868h-3.912V94.509ZM211.451,56.07a11.208,11.208,0,0,1,7.179-2.641,11.269,11.269,0,0,1-2.622,7.14,11.205,11.205,0,0,1-7.14,2.641,11.211,11.211,0,0,1,2.582-7.14Zm-8.1,3.912a5.556,5.556,0,0,1,1.35,3.228,4.626,4.626,0,0,1-4.343-4.46,5.569,5.569,0,0,1,3.032,1.311Zm-1,19.718h1.271a1.956,1.956,0,1,0,0-3.912H202.14L202,72.716a4.519,4.519,0,0,1,9.038-.1l-.548,11.737h-2.544a1.956,1.956,0,0,0,0,3.912H210.3V90.6H202.9ZM179.507,90.6a1.764,1.764,0,0,0,0-.215,1.956,1.956,0,0,0-1.956-1.956h-2.543l-.528-11.737A4.538,4.538,0,0,1,179,72.149a4.46,4.46,0,0,1,3.209,1.349,4.385,4.385,0,0,1,1.311,3.091l-.137,3.169h-1.467a1.956,1.956,0,1,0,0,3.912h1.33l-.333,6.925Zm2.739-26.624a5.555,5.555,0,0,1,3.071-1.311,5.575,5.575,0,0,1-1.252,3.071,5.55,5.55,0,0,1-3.071,1.31,5.557,5.557,0,0,1,1.252-3.07ZM166.988,57.34a11.208,11.208,0,0,1,7.14,2.622,11.2,11.2,0,0,1,2.621,7.159,11.271,11.271,0,0,1-7.14-2.622A11.212,11.212,0,0,1,166.988,57.34Zm-12.109-2.934a5.439,5.439,0,0,1,3.052-1.369,6.045,6.045,0,0,1-1.35,3.325,5.44,5.44,0,0,1-3.051,1.369,6.067,6.067,0,0,1,1.349-3.306ZM139.6,47.559a10.937,10.937,0,0,1,7.12,2.739,12.045,12.045,0,0,1,2.641,7.55,10.992,10.992,0,0,1-7.12-2.7A12.047,12.047,0,0,1,139.6,47.559Zm8.235,36.248H150.2a1.956,1.956,0,1,0,0-3.912H147.68l-.548-12.226a4.656,4.656,0,0,1,4.518-4.753A4.342,4.342,0,0,1,154.84,64.3a4.752,4.752,0,0,1,1.35,3.287l-.176,3.442h-1.486a1.956,1.956,0,1,0,0,3.912h1.311l-.568,12.5h-2.191a1.925,1.925,0,0,0-1.467,3.208H148.15Zm-8.763,10.7v5.868h-3.912V94.508Zm-3.912,39.123h3.912v7.825h-3.912Zm17.605,15.649h-9.781v-3.912h9.781Zm64.553,0h-9.781v-3.912h9.781Zm3.912-7.825v-7.825h3.912v7.825Z" fill="#fff"></path>
  </g>
</svg>
