<?xml version="1.0" encoding="UTF-8"?>
<svg xmlns="http://www.w3.org/2000/svg" width="95.44" height="114.574" viewBox="0 0 95.44 114.574">
  <g id="noun-shield-3201853" transform="translate(-128.537 -11.569)">
    <path id="Path_101" data-name="Path 101" d="M261.768,204.156a4.976,4.976,0,1,0-7.037,7.037L265,221.459a5,5,0,0,0,3.461,1.5,4.551,4.551,0,0,0,3.461-1.5l19.61-19.61a4.976,4.976,0,0,0-7.037-7.037l-16.15,16.149Z" transform="translate(-97.046 -142.343)" fill="#fff" stroke="#075221" stroke-width="5"></path>
    <path id="Path_102" data-name="Path 102" d="M218.247,35.857c-28.147-11.3-38.644-20.418-38.76-20.533a4.936,4.936,0,0,0-6.576,0c-.115.115-10.5,9.113-38.76,20.533a5.033,5.033,0,0,0-3.115,4.614c0,58.14,40.952,81.672,42.8,82.6a4.439,4.439,0,0,0,2.423.577,6.2,6.2,0,0,0,2.423-.577c1.73-.923,42.8-24.456,42.8-82.6a5.389,5.389,0,0,0-3.231-4.614ZM176.142,112.8c-8.191-5.537-33.915-26.417-35.184-69.1,19.379-8.075,30.223-14.881,35.184-18.457,4.96,3.576,15.8,10.382,35.184,18.457C210.057,86.5,184.332,107.263,176.142,112.8Z" transform="translate(0 0)" fill="#fff" stroke="#075221" stroke-width="5"></path>
  </g>
</svg>
