<?xml version="1.0" encoding="UTF-8"?>
<svg xmlns="http://www.w3.org/2000/svg" width="109.574" height="109.574" viewBox="0 0 109.574 109.574">
  <g id="noun-innovation-4143992" transform="translate(-105 -35)">
    <path id="Path_86" data-name="Path 86" d="M252.118,188.1H230.511a6.067,6.067,0,0,1-6.031-5.188,37.422,37.422,0,0,0-6.99-17.114,32.033,32.033,0,0,1-7.469-21.383,31.3,31.3,0,0,1,62.588,0,32.033,32.033,0,0,1-7.469,21.383,37.382,37.382,0,0,0-6.99,17.112,6.067,6.067,0,0,1-6.031,5.19Zm-10.8-70.441a27.1,27.1,0,0,0-27.381,26.875,28.3,28.3,0,0,0,6.591,18.793,41.12,41.12,0,0,1,7.823,19,2.177,2.177,0,0,0,2.163,1.861h21.607a2.176,2.176,0,0,0,2.163-1.863,41.178,41.178,0,0,1,7.823-19,28.3,28.3,0,0,0,6.591-18.793,27.1,27.1,0,0,0-27.381-26.875Z" transform="translate(-81.528 -61.133)" fill="#fff"></path>
    <path id="Path_87" data-name="Path 87" d="M298.633,221.053a12.289,12.289,0,1,1,8.689,3.6,12.283,12.283,0,0,1-8.689-3.6Zm2.766-14.611h0a8.368,8.368,0,1,0,5.921-2.455,8.374,8.374,0,0,0-5.921,2.455Z" transform="translate(-147.536 -128.162)" fill="#fff"></path>
    <path id="Path_88" data-name="Path 88" d="M270.742,196.99h-4.684a2.816,2.816,0,0,1-2.734-2.135l-.82-3.277a18.888,18.888,0,0,1-2.738-1.15l-2.847,1.708h0a2.808,2.808,0,0,1-3.443-.426l-3.31-3.309a2.816,2.816,0,0,1-.426-3.438l1.739-2.9a18.721,18.721,0,0,1-1.122-2.753l-3.221-.8h0A2.817,2.817,0,0,1,245,175.771v-4.683a2.813,2.813,0,0,1,2.134-2.733l3.279-.819a18.839,18.839,0,0,1,1.149-2.741l-1.706-2.847h0a2.814,2.814,0,0,1,.428-3.446l3.305-3.305h0a2.811,2.811,0,0,1,3.442-.425l2.9,1.738a18.852,18.852,0,0,1,2.752-1.123l.806-3.221a2.812,2.812,0,0,1,2.732-2.133H270.9a2.814,2.814,0,0,1,2.734,2.134l.819,3.277a18.836,18.836,0,0,1,2.74,1.15l2.849-1.708a2.81,2.81,0,0,1,3.439.425l3.312,3.311a2.816,2.816,0,0,1,.426,3.44l-1.739,2.9h0a18.722,18.722,0,0,1,1.122,2.753l3.221.805h0a2.812,2.812,0,0,1,2.134,2.733v4.683a2.812,2.812,0,0,1-2.134,2.733l-3.279.82a18.669,18.669,0,0,1-1.15,2.739l1.709,2.847h0a2.815,2.815,0,0,1-.424,3.441l-3.312,3.312a2.81,2.81,0,0,1-3.443.423l-2.895-1.737a18.815,18.815,0,0,1-2.752,1.123l-.806,3.221a2.812,2.812,0,0,1-2.732,2.134Zm-3.828-3.913h2.972l.874-3.488h0a1.953,1.953,0,0,1,1.422-1.423,14.989,14.989,0,0,0,3.912-1.6,1.957,1.957,0,0,1,1.992.01l3.125,1.872,2.1-2.1-1.848-3.081a1.962,1.962,0,0,1,0-2.013,15.008,15.008,0,0,0,1.64-3.9,1.956,1.956,0,0,1,1.418-1.4l3.532-.882v-2.972l-3.487-.873h0a1.954,1.954,0,0,1-1.424-1.424,15,15,0,0,0-1.6-3.914,1.956,1.956,0,0,1,.011-1.994l1.873-3.119-2.1-2.1-3.084,1.847h0a1.959,1.959,0,0,1-2.01,0,15.008,15.008,0,0,0-3.9-1.637,1.956,1.956,0,0,1-1.4-1.418l-.884-3.532h-2.97l-.873,3.487h0a1.953,1.953,0,0,1-1.422,1.423,15.031,15.031,0,0,0-3.915,1.6,1.957,1.957,0,0,1-1.993-.012l-3.12-1.872-2.1,2.1,1.847,3.082a1.953,1.953,0,0,1,0,2.009,15.141,15.141,0,0,0-1.637,3.9,1.956,1.956,0,0,1-1.418,1.4l-3.532.882v2.972l3.487.871a1.954,1.954,0,0,1,1.424,1.424,14.987,14.987,0,0,0,1.6,3.913,1.955,1.955,0,0,1-.011,1.993l-1.873,3.121,2.1,2.1,3.08-1.847h0a1.96,1.96,0,0,1,2.013,0,14.983,14.983,0,0,0,3.9,1.637,1.955,1.955,0,0,1,1.4,1.418Z" transform="translate(-108.694 -89.307)" fill="#fff"></path>
    <path id="Path_89" data-name="Path 89" d="M341.25,44.783V36.957a1.957,1.957,0,1,1,3.913,0v7.827a1.957,1.957,0,1,1-3.913,0Z" transform="translate(-183.42)" fill="#fff"></path>
    <path id="Path_90" data-name="Path 90" d="M227.332,76.415l-3.913-6.778a1.957,1.957,0,0,1,3.389-1.957l3.913,6.778a1.957,1.957,0,0,1-3.389,1.957Z" transform="translate(-91.741 -24.623)" fill="#fff"></path>
    <path id="Path_91" data-name="Path 91" d="M144.454,160.711l-6.778-3.913a1.957,1.957,0,0,1,1.957-3.389l6.778,3.913a1.957,1.957,0,0,1-1.957,3.389Z" transform="translate(-24.619 -91.732)" fill="#fff"></path>
    <path id="Path_92" data-name="Path 92" d="M114.783,275.163h-7.827a1.957,1.957,0,1,1,0-3.913h7.827a1.957,1.957,0,1,1,0,3.913Z" transform="translate(0 -183.42)" fill="#fff"></path>
    <path id="Path_93" data-name="Path 93" d="M137.668,376.078l6.778-3.913a1.957,1.957,0,0,1,1.957,3.389l-6.778,3.913a1.957,1.957,0,0,1-1.957-3.389Z" transform="translate(-24.611 -261.57)" fill="#fff"></path>
    <path id="Path_94" data-name="Path 94" d="M523.336,379.461l-6.778-3.913a1.957,1.957,0,0,1,1.957-3.389l6.778,3.913a1.957,1.957,0,0,1-1.957,3.389Z" transform="translate(-318.776 -261.565)" fill="#fff"></path>
    <path id="Path_95" data-name="Path 95" d="M552.283,275.163h-7.827a1.957,1.957,0,1,1,0-3.913h7.827a1.957,1.957,0,0,1,0,3.913Z" transform="translate(-339.666 -183.42)" fill="#fff"></path>
    <path id="Path_96" data-name="Path 96" d="M516.559,157.332l6.778-3.913a1.957,1.957,0,0,1,1.957,3.389l-6.778,3.913a1.957,1.957,0,0,1-1.957-3.389Z" transform="translate(-318.774 -91.741)" fill="#fff"></path>
    <path id="Path_97" data-name="Path 97" d="M442.153,74.452l3.913-6.778a1.957,1.957,0,0,1,3.389,1.957l-3.913,6.778a1.957,1.957,0,0,1-3.389-1.957Z" transform="translate(-261.558 -24.617)" fill="#fff"></path>
    <path id="Path_98" data-name="Path 98" d="M309.35,458.913H281.957a1.957,1.957,0,1,1,0-3.913H309.35a1.957,1.957,0,1,1,0,3.913Z" transform="translate(-135.866 -326.079)" fill="#fff"></path>
    <path id="Path_99" data-name="Path 99" d="M309.35,485.163H281.957a1.957,1.957,0,1,1,0-3.913H309.35a1.957,1.957,0,1,1,0,3.913Z" transform="translate(-135.866 -346.459)" fill="#fff"></path>
    <path id="Path_100" data-name="Path 100" d="M323.86,511.413H308.207a1.957,1.957,0,0,1,0-3.913H323.86a1.957,1.957,0,0,1,0,3.913Z" transform="translate(-156.246 -366.839)" fill="#fff"></path>
  </g>
</svg>
